<svg width="836" height="324" viewBox="0 0 836 324" fill="none" xmlns="http://www.w3.org/2000/svg">
<path fill-rule="evenodd" clip-rule="evenodd" d="M-149.668 13.9408C-149.439 14.3851 -149.438 14.3851 -149.438 14.3847L-149.433 14.3825L-149.415 14.373C-149.397 14.3643 -149.371 14.351 -149.335 14.3334C-149.264 14.2981 -149.156 14.2453 -149.011 14.1764C-148.721 14.0386 -148.283 13.8363 -147.696 13.5808C-146.521 13.07 -144.75 12.3468 -142.37 11.5023C-137.612 9.81319 -130.425 7.63853 -120.727 5.70661C-101.333 1.84289 -71.8954 -1.05074 -31.7683 2.85514C48.4859 10.667 171.514 45.6788 342.472 154.549C513.531 263.484 636.707 298.565 717.153 306.396C757.376 310.311 786.912 307.413 806.405 303.529C816.15 301.588 823.384 299.4 828.187 297.696C830.588 296.843 832.381 296.111 833.576 295.592C833.904 295.449 834.186 295.323 834.424 295.214C834.621 295.124 834.787 295.047 834.922 294.982C835.072 294.911 835.185 294.856 835.261 294.818C835.299 294.799 835.328 294.785 835.348 294.775L835.37 294.763L835.376 294.76C835.377 294.76 835.378 294.759 835.283 294.574C835.251 294.511 835.208 294.427 835.15 294.315L835.012 294.048C834.92 293.87 834.92 293.87 834.919 293.871L834.915 293.873L834.896 293.882C834.879 293.891 834.853 293.904 834.817 293.922C834.746 293.957 834.638 294.01 834.493 294.079C834.203 294.217 833.765 294.419 833.178 294.675C832.003 295.185 830.231 295.909 827.852 296.753C823.094 298.442 815.907 300.617 806.209 302.549C786.815 306.412 757.377 309.306 717.25 305.4C636.996 297.588 513.968 262.577 343.009 153.706C171.951 44.7719 48.7744 9.69031 -31.6714 1.85986C-71.8944 -2.05538 -101.431 0.84265 -120.923 4.72589C-130.669 6.66744 -137.903 8.85507 -142.705 10.5599C-145.106 11.4123 -146.899 12.144 -148.095 12.6638C-148.692 12.9237 -149.141 13.1307 -149.441 13.2732C-149.591 13.3445 -149.704 13.3997 -149.78 13.4374C-149.818 13.4563 -149.846 13.4707 -149.866 13.4806L-149.888 13.4921L-149.895 13.4952C-149.896 13.496 -149.897 13.4965 -149.668 13.9408ZM-151.685 21.4275C-151.686 21.4279 -151.686 21.4279 -151.916 20.9836C-152.145 20.5393 -152.144 20.5388 -152.142 20.538L-152.136 20.5348L-152.114 20.5234C-152.094 20.5135 -152.065 20.499 -152.027 20.4802C-151.951 20.4425 -151.838 20.3873 -151.688 20.316C-151.388 20.1734 -150.94 19.9665 -150.343 19.7066C-149.147 19.1868 -147.354 18.4551 -144.953 17.6027C-140.15 15.8979 -132.916 13.7102 -123.171 11.7687C-103.678 7.88544 -74.1421 4.98741 -33.9192 8.90263C46.5267 16.7331 169.703 51.8147 340.762 160.749C511.72 269.619 634.748 304.631 715.002 312.443C755.129 316.349 784.567 313.455 803.961 309.592C813.659 307.66 820.846 305.485 825.604 303.796C827.983 302.951 829.755 302.228 830.93 301.717C831.517 301.462 831.955 301.26 832.245 301.122C832.39 301.053 832.498 301 832.569 300.965C832.605 300.947 832.631 300.934 832.649 300.925L832.667 300.916L832.672 300.913C832.672 300.913 832.672 300.913 832.764 301.091L832.902 301.357C833.031 301.607 833.087 301.717 833.111 301.765C833.13 301.802 833.129 301.803 833.128 301.803L833.122 301.806L833.1 301.818C833.08 301.827 833.052 301.842 833.013 301.861C832.937 301.898 832.825 301.954 832.675 302.025C832.528 302.095 832.346 302.18 832.128 302.279C831.901 302.382 831.634 302.501 831.329 302.634C830.133 303.154 828.34 303.886 825.939 304.738C821.136 306.443 813.902 308.631 804.157 310.572C784.665 314.455 755.128 317.354 714.905 313.438C634.459 305.608 511.283 270.526 340.225 161.592C169.266 52.7216 46.2382 17.7097 -34.0161 9.89793C-74.1432 5.99203 -103.581 8.88568 -122.975 12.7494C-132.673 14.6813 -139.86 16.856 -144.618 18.5451C-146.997 19.3896 -148.769 20.1128 -149.944 20.6236C-150.531 20.879 -150.969 21.0813 -151.259 21.2192C-151.404 21.2881 -151.512 21.3409 -151.583 21.3762L-151.612 21.3903L-151.662 21.4157L-151.681 21.4253L-151.685 21.4275ZM-154.164 28.0262C-153.934 28.4706 -153.934 28.4705 -153.933 28.4701L-153.929 28.468L-153.91 28.4584L-153.862 28.4341L-153.831 28.4188C-153.76 28.3835 -153.652 28.3307 -153.507 28.2618C-153.217 28.124 -152.779 27.9217 -152.192 27.6663C-151.017 27.1554 -149.245 26.4323 -146.866 25.5877C-142.108 23.8986 -134.921 21.7239 -125.223 19.792C-105.829 15.9283 -76.3911 13.0347 -36.264 16.9406C43.9902 24.7524 167.018 59.7642 337.977 168.635C509.035 277.569 632.212 312.65 712.657 320.481C752.88 324.396 782.417 321.498 801.909 317.615C811.655 315.673 818.889 313.486 823.691 311.781C826.092 310.928 827.885 310.197 829.081 309.677C829.678 309.417 830.127 309.21 830.427 309.068C830.577 308.996 830.69 308.941 830.766 308.903C830.804 308.885 830.832 308.87 830.852 308.86L830.874 308.849L830.88 308.846C830.881 308.845 830.881 308.845 830.879 308.841C830.876 308.833 830.866 308.814 830.84 308.762C830.809 308.7 830.752 308.591 830.654 308.4L830.516 308.134C830.424 307.956 830.424 307.956 830.424 307.956L830.419 307.958L830.401 307.968L830.344 307.996L830.321 308.007C830.25 308.043 830.142 308.095 829.997 308.164C829.707 308.302 829.269 308.504 828.682 308.76C827.507 309.271 825.735 309.994 823.356 310.838C818.598 312.528 811.411 314.702 801.713 316.634C782.319 320.498 752.881 323.392 712.754 319.486C632.5 311.674 509.472 276.662 338.514 167.791C167.455 58.8573 44.2787 23.7757 -36.1671 15.9453C-76.3901 12.03 -105.926 14.9281 -125.419 18.8113C-135.164 20.7528 -142.398 22.9405 -147.201 24.6453C-149.602 25.4977 -151.395 26.2294 -152.59 26.7492C-153.188 27.0091 -153.636 27.2161 -153.936 27.3587C-154.086 27.4299 -154.199 27.4851 -154.275 27.5228C-154.313 27.5417 -154.342 27.5561 -154.362 27.566L-154.384 27.5775L-154.39 27.5806C-154.392 27.5814 -154.393 27.5819 -154.164 28.0262ZM-156.181 35.5129C-156.182 35.5133 -156.182 35.5133 -156.411 35.069C-156.641 34.6247 -156.64 34.6242 -156.638 34.6234L-156.632 34.6203L-156.609 34.6088L-156.577 34.5926L-156.523 34.5656C-156.447 34.5279 -156.334 34.4727 -156.184 34.4014C-155.884 34.2589 -155.436 34.0519 -154.838 33.792C-153.643 33.2722 -151.85 32.5405 -149.448 31.6881C-144.646 29.9833 -137.412 27.7956 -127.666 25.8541C-108.174 21.9709 -78.6378 19.0728 -38.4149 22.9881C42.0309 30.8185 165.208 65.9001 336.266 174.834C507.225 283.705 630.252 318.717 710.506 326.528C750.634 330.434 780.071 327.541 799.466 323.677C809.163 321.745 816.35 319.57 821.109 317.881C823.488 317.037 825.26 316.313 826.434 315.803C826.616 315.724 826.784 315.65 826.937 315.581C827.092 315.512 827.232 315.448 827.358 315.39C827.509 315.32 827.64 315.259 827.75 315.207L827.82 315.174L827.926 315.122C827.986 315.093 828.035 315.069 828.074 315.05C828.109 315.033 828.136 315.019 828.153 315.011L828.172 315.001L828.176 314.999C828.176 314.999 828.177 314.998 828.269 315.176L828.406 315.443C828.488 315.602 828.541 315.705 828.575 315.77C828.635 315.887 828.634 315.888 828.633 315.888L828.627 315.891L828.604 315.903C828.585 315.913 828.556 315.927 828.518 315.946C828.442 315.984 828.329 316.039 828.179 316.11C827.879 316.253 827.431 316.46 826.833 316.72C825.638 317.24 823.844 317.971 821.443 318.824C816.641 320.529 809.407 322.716 799.661 324.658C780.169 328.541 750.633 331.439 710.41 327.524C629.964 319.693 506.787 284.612 335.729 175.678C164.77 66.807 41.7425 31.7952 -38.5118 23.9834C-78.6389 20.0775 -108.077 22.9711 -127.471 26.8348C-137.168 28.7667 -144.356 30.9414 -149.114 32.6305C-151.493 33.475 -153.265 34.1982 -154.439 34.709C-155.027 34.9645 -155.465 35.1668 -155.755 35.3046C-155.9 35.3735 -156.008 35.4263 -156.079 35.4616C-156.115 35.4792 -156.141 35.4925 -156.158 35.5012L-156.177 35.5107L-156.181 35.5129ZM-158.659 42.1118C-158.43 42.5561 -158.43 42.5561 -158.429 42.5557L-158.425 42.5535L-158.406 42.5439C-158.389 42.5353 -158.362 42.522 -158.327 42.5044C-158.256 42.4691 -158.148 42.4163 -158.003 42.3474C-157.713 42.2096 -157.275 42.0072 -156.687 41.7518C-155.513 41.241 -153.741 40.5178 -151.362 39.6733C-146.604 37.9842 -139.416 35.8095 -129.719 33.8776C-110.324 30.0139 -80.8867 27.1202 -40.7596 31.0261C39.4947 38.838 162.522 73.8498 333.481 182.72C504.539 291.654 627.716 326.736 708.162 334.566C748.385 338.482 777.921 335.584 797.413 331.7C807.159 329.759 814.393 327.571 819.195 325.866C821.597 325.014 823.39 324.282 824.585 323.763C824.92 323.617 825.208 323.488 825.45 323.377C825.639 323.291 825.799 323.216 825.931 323.153C826.081 323.082 826.194 323.027 826.27 322.989C826.308 322.97 826.337 322.956 826.356 322.946L826.379 322.934L826.385 322.931C826.387 322.93 826.388 322.93 826.158 322.485L826.021 322.219C825.929 322.041 825.929 322.041 825.928 322.042L825.924 322.044L825.905 322.053C825.888 322.062 825.861 322.075 825.826 322.093C825.755 322.128 825.647 322.181 825.502 322.25C825.212 322.388 824.774 322.59 824.186 322.845C823.012 323.356 821.24 324.079 818.861 324.924C814.103 326.613 806.915 328.788 797.218 330.72C777.824 334.583 748.386 337.477 708.259 333.571C628.004 325.759 504.977 290.748 334.018 181.877C162.96 72.9429 39.7832 37.8613 -40.6627 30.0308C-80.8856 26.1156 -110.422 29.0136 -129.914 32.8969C-139.66 34.8384 -146.894 37.0261 -151.696 38.7309C-154.097 39.5833 -155.891 40.315 -157.086 40.8348C-157.684 41.0947 -158.132 41.3016 -158.432 41.4442C-158.582 41.5155 -158.695 41.5707 -158.771 41.6084C-158.809 41.6273 -158.838 41.6417 -158.857 41.6516L-158.88 41.6631L-158.886 41.6662C-158.887 41.667 -158.888 41.6675 -158.659 42.1118ZM-160.678 49.5968C-160.68 49.5938 -160.684 49.586 -160.695 49.5657C-160.718 49.5203 -160.774 49.412 -160.907 49.1546C-161.136 48.7103 -161.135 48.7098 -161.134 48.709L-161.128 48.7058L-161.105 48.6944C-161.086 48.6845 -161.057 48.67 -161.019 48.6512C-160.943 48.6135 -160.83 48.5583 -160.68 48.487C-160.38 48.3444 -159.932 48.1375 -159.334 47.8776C-158.139 47.3578 -156.345 46.6261 -153.944 45.7737C-149.142 44.0689 -141.908 41.8812 -132.162 39.9397C-112.67 36.0564 -83.1336 33.1584 -42.9106 37.0736C37.5352 44.9041 160.712 79.9857 331.77 188.92C502.729 297.79 625.756 332.802 706.011 340.614C746.138 344.52 775.576 341.626 794.97 337.763C804.667 335.831 811.855 333.656 816.613 331.967C818.992 331.122 820.764 330.399 821.938 329.888C822.526 329.633 822.964 329.431 823.254 329.293C823.399 329.224 823.507 329.171 823.578 329.136C823.614 329.118 823.64 329.105 823.657 329.096L823.676 329.087L823.68 329.084C823.681 329.084 823.681 329.084 823.773 329.262L823.91 329.528C824.14 329.973 824.139 329.973 824.137 329.974L824.131 329.977L824.108 329.988L824.073 330.006L824.022 330.032L823.955 330.065L823.869 330.107L823.785 330.147L823.683 330.196C823.383 330.339 822.935 330.545 822.337 330.805C821.142 331.325 819.349 332.057 816.947 332.909C812.145 334.614 804.911 336.802 795.165 338.743C775.673 342.626 746.137 345.525 705.914 341.609C625.468 333.779 502.291 298.697 331.233 189.763C160.274 80.8926 37.2467 45.8808 -43.0075 38.0689C-83.1346 34.163 -112.572 37.0567 -131.967 40.9204C-141.664 42.8523 -148.852 45.027 -153.61 46.7161C-155.989 47.5606 -157.761 48.2838 -158.935 48.7946C-159.523 49.05 -159.961 49.2524 -160.251 49.3902C-160.396 49.4591 -160.504 49.5119 -160.575 49.5472C-160.61 49.5648 -160.637 49.5781 -160.654 49.5867L-160.673 49.5963L-160.677 49.5985C-160.677 49.5985 -160.677 49.5986 -160.677 49.598L-160.678 49.5968ZM-162.939 56.6151C-162.925 56.6415 -162.925 56.6414 -162.925 56.6413L-162.92 56.6391L-162.902 56.6295L-162.869 56.6132L-162.822 56.59C-162.751 56.5547 -162.643 56.5019 -162.498 56.433C-162.208 56.2951 -161.77 56.0928 -161.183 55.8374C-160.008 55.3266 -158.237 54.6034 -155.857 53.7589C-151.099 52.0698 -143.912 49.8951 -134.214 47.9632C-114.82 44.0995 -85.3824 41.2058 -45.2553 45.1117C34.999 52.9235 158.027 87.9354 328.985 196.806C500.044 305.74 623.22 340.822 703.666 348.652C743.889 352.567 773.425 349.669 792.917 345.786C802.663 343.844 809.897 341.657 814.7 339.952C817.101 339.1 818.894 338.368 820.089 337.848C820.687 337.588 821.135 337.381 821.435 337.239C821.585 337.167 821.698 337.112 821.774 337.074L821.823 337.05L821.861 337.031L821.883 337.02L821.889 337.017C821.891 337.016 821.892 337.015 821.662 336.571L821.525 336.305C821.433 336.127 821.433 336.127 821.432 336.127L821.428 336.129L821.409 336.139C821.392 336.148 821.366 336.161 821.33 336.179L821.308 336.19L821.205 336.24C821.149 336.267 821.083 336.299 821.006 336.336C820.716 336.473 820.278 336.676 819.691 336.931C818.516 337.442 816.744 338.165 814.365 339.01C809.607 340.699 802.42 342.873 792.722 344.805C773.328 348.669 743.89 351.563 703.763 347.657C623.509 339.845 500.481 304.833 329.522 195.963C158.464 87.0285 35.2874 51.9469 -45.1584 44.1164C-85.3814 40.2012 -114.918 43.0992 -134.41 46.9825C-144.156 48.924 -151.39 51.1116 -156.192 52.8165C-158.593 53.6689 -160.386 54.4006 -161.582 54.9204C-162.179 55.1803 -162.628 55.3872 -162.928 55.5298C-163.078 55.6011 -163.191 55.6563 -163.267 55.694L-163.329 55.7249L-163.353 55.7372L-163.375 55.7486L-163.382 55.7517C-163.383 55.7526 -163.384 55.7531 -163.155 56.1974L-163.039 56.422C-162.981 56.5332 -162.953 56.5881 -162.939 56.6151ZM-165.173 63.6841C-165.173 63.6844 -165.173 63.6845 -165.403 63.2402C-165.632 62.7959 -165.631 62.7954 -165.629 62.7945L-165.623 62.7914L-165.601 62.78C-165.581 62.7701 -165.553 62.7556 -165.515 62.7368C-165.439 62.6991 -165.326 62.6439 -165.176 62.5726C-164.876 62.43 -164.427 62.2231 -163.83 61.9632C-162.634 61.4433 -160.841 60.7117 -158.44 59.8593C-153.637 58.1544 -146.404 55.9668 -136.658 54.0252C-117.166 50.142 -87.6293 47.244 -47.4063 51.1592C33.0395 58.9897 156.216 94.0712 327.274 203.005C498.233 311.876 621.261 346.888 701.515 354.7C741.642 358.606 771.08 355.712 790.474 351.848C800.172 349.916 807.359 347.742 812.117 346.052C814.496 345.208 816.268 344.485 817.443 343.974C818.03 343.718 818.468 343.516 818.758 343.378C818.903 343.309 819.011 343.257 819.082 343.221C819.118 343.204 819.144 343.19 819.161 343.182L819.18 343.172L819.184 343.17C819.185 343.17 819.185 343.17 819.188 343.176L819.198 343.195L819.212 343.223L819.277 343.348L819.415 343.614C819.644 344.058 819.643 344.059 819.641 344.06L819.635 344.063L819.613 344.074L819.572 344.094L819.526 344.117C819.45 344.155 819.337 344.21 819.187 344.282C818.887 344.424 818.439 344.631 817.841 344.891C816.646 345.411 814.853 346.142 812.452 346.995C807.649 348.7 800.415 350.887 790.67 352.829C771.177 356.712 741.641 359.61 701.418 355.695C620.972 347.864 497.796 312.783 326.737 203.849C155.779 94.9782 32.751 59.9663 -47.5032 52.1545C-87.6304 48.2486 -117.068 51.1423 -136.462 55.006C-146.16 56.9379 -153.347 59.1125 -158.105 60.8016C-160.484 61.6462 -162.256 62.3694 -163.431 62.8802C-164.018 63.1356 -164.456 63.3379 -164.746 63.4758C-164.891 63.5447 -164.999 63.5975 -165.07 63.6328L-165.124 63.6593L-165.15 63.6723L-165.168 63.6819L-165.173 63.6841ZM-167.436 70.6977C-167.421 70.7271 -167.421 70.727 -167.42 70.7269L-167.416 70.7247L-167.397 70.7151C-167.38 70.7064 -167.354 70.6932 -167.318 70.6755C-167.247 70.6403 -167.139 70.5875 -166.994 70.5186C-166.704 70.3807 -166.266 70.1784 -165.679 69.923C-164.504 69.4122 -162.732 68.689 -160.353 67.8444C-155.595 66.1553 -148.408 63.9807 -138.71 62.0488C-119.316 58.185 -89.8781 55.2914 -49.751 59.1973C30.5032 67.0091 153.531 102.021 324.49 210.892C495.548 319.826 618.725 354.907 699.17 362.738C739.393 366.653 768.93 363.755 788.422 359.872C798.168 357.93 805.402 355.742 810.204 354.038C812.605 353.185 814.398 352.454 815.594 351.934C816.191 351.674 816.64 351.467 816.94 351.324C817.09 351.253 817.203 351.198 817.279 351.16C817.317 351.141 817.345 351.127 817.365 351.117L817.387 351.105L817.393 351.102C817.395 351.102 817.396 351.101 817.167 350.657L817.029 350.39C816.937 350.212 816.937 350.213 816.937 350.213L816.932 350.215L816.914 350.225C816.896 350.233 816.87 350.246 816.834 350.264C816.763 350.299 816.655 350.352 816.51 350.421C816.22 350.559 815.782 350.761 815.195 351.017C814.02 351.527 812.248 352.251 809.869 353.095C805.111 354.784 797.924 356.959 788.226 358.891C768.832 362.755 739.394 365.648 699.267 361.742C619.013 353.931 495.985 318.919 325.027 210.048C153.968 101.114 30.7917 66.0325 -49.6542 58.202C-89.8771 54.2868 -119.413 57.1848 -138.906 61.068C-148.651 63.0096 -155.885 65.1972 -160.688 66.902C-163.089 67.7544 -164.882 68.4861 -166.077 69.0059C-166.675 69.2659 -167.123 69.4728 -167.423 69.6154C-167.573 69.6867 -167.686 69.7419 -167.762 69.7796C-167.8 69.7984 -167.829 69.8129 -167.849 69.8228L-167.871 69.8342L-167.877 69.8373C-167.879 69.8381 -167.88 69.8387 -167.651 70.283L-167.474 70.6248L-167.436 70.6977ZM-169.668 77.7695C-169.669 77.7699 -169.669 77.7699 -169.898 77.3256C-170.128 76.8813 -170.127 76.8808 -170.125 76.8799L-170.119 76.8768L-170.097 76.8654C-170.077 76.8555 -170.048 76.841 -170.01 76.8222C-169.934 76.7845 -169.821 76.7293 -169.671 76.658C-169.371 76.5154 -168.923 76.3085 -168.325 76.0486C-167.13 75.5288 -165.337 74.7971 -162.935 73.9447C-158.133 72.2398 -150.899 70.0522 -141.153 68.1107C-121.661 64.2274 -92.1249 61.3294 -51.9019 65.2446C28.5439 73.0751 151.721 108.157 322.779 217.091C493.738 325.961 616.765 360.973 697.02 368.785C737.147 372.691 766.584 369.797 785.979 365.934C795.676 364.002 802.863 361.827 807.622 360.138C810.001 359.293 811.772 358.57 812.947 358.059C813.279 357.915 813.564 357.787 813.801 357.679C813.887 357.639 813.968 357.602 814.042 357.568C814.09 357.545 814.137 357.523 814.18 357.503L814.263 357.464C814.408 357.395 814.515 357.342 814.587 357.307C814.622 357.289 814.649 357.276 814.666 357.267L814.685 357.258L814.689 357.255C814.689 357.255 814.69 357.255 814.782 357.433L814.919 357.699C815.148 358.144 815.147 358.144 815.146 358.145L815.14 358.148L815.117 358.16L815.086 358.175L815.031 358.203L814.99 358.223L814.942 358.246L814.865 358.284C814.814 358.308 814.757 358.336 814.692 358.367C814.626 358.398 814.553 358.433 814.473 358.47C814.419 358.495 814.363 358.521 814.303 358.549C814.244 358.576 814.183 358.604 814.119 358.633C813.897 358.734 813.64 358.849 813.346 358.976C812.151 359.496 810.357 360.228 807.956 361.08C803.154 362.785 795.92 364.973 786.174 366.914C766.682 370.797 737.145 373.696 696.923 369.78C616.477 361.95 493.3 326.868 322.242 217.934C151.283 109.064 28.2554 74.0517 -51.9988 66.2399C-92.1259 62.334 -121.564 65.2277 -140.958 69.0914C-150.655 71.0233 -157.843 73.198 -162.601 74.8871C-164.98 75.7316 -166.752 76.4548 -167.927 76.9656C-168.514 77.221 -168.952 77.4233 -169.242 77.5612C-169.306 77.5916 -169.363 77.6189 -169.412 77.6429C-169.475 77.6733 -169.526 77.6985 -169.566 77.7182C-169.602 77.7358 -169.628 77.749 -169.645 77.7577L-169.664 77.7673L-169.668 77.7695ZM-172.146 84.3684C-171.917 84.8127 -171.917 84.8127 -171.916 84.8123L-171.912 84.8101L-171.893 84.8005C-171.876 84.7918 -171.85 84.7786 -171.814 84.761C-171.743 84.7257 -171.635 84.6729 -171.49 84.604C-171.2 84.4661 -170.762 84.2638 -170.174 84.0084C-169 83.4976 -167.228 82.7744 -164.849 81.9299C-160.091 80.2408 -152.903 78.0661 -143.206 76.1342C-123.812 72.2705 -94.3739 69.3768 -54.2468 73.2827C26.0075 81.0945 149.035 116.106 319.994 224.977C491.052 333.911 614.229 368.993 694.675 376.823C734.898 380.738 764.434 377.84 783.926 373.957C793.672 372.016 800.906 369.828 805.708 368.123C808.109 367.271 809.903 366.539 811.098 366.019C811.696 365.759 812.144 365.552 812.444 365.41C812.594 365.338 812.707 365.283 812.783 365.246C812.821 365.227 812.85 365.212 812.869 365.202L812.892 365.191L812.898 365.188C812.899 365.187 812.899 365.187 812.859 365.108L812.8 364.993L812.671 364.742L812.534 364.476C812.476 364.365 812.454 364.323 812.446 364.307C812.441 364.298 812.441 364.298 812.441 364.298L812.437 364.3L812.418 364.31C812.401 364.319 812.374 364.332 812.339 364.35C812.268 364.385 812.16 364.438 812.015 364.507C811.725 364.644 811.286 364.847 810.699 365.102C809.525 365.613 807.753 366.336 805.374 367.181C800.616 368.87 793.428 371.044 783.731 372.976C764.336 376.84 734.899 379.734 694.772 375.828C614.517 368.016 491.49 333.004 320.531 224.134C149.473 115.199 26.296 80.1179 -54.1499 72.2874C-94.3728 68.3722 -123.909 71.2702 -143.401 75.1535C-153.147 77.095 -160.381 79.2826 -165.183 80.9875C-167.585 81.8399 -169.378 82.5716 -170.573 83.0914C-171.171 83.3513 -171.619 83.5582 -171.919 83.7008C-172.069 83.7721 -172.182 83.8273 -172.258 83.865C-172.296 83.8838 -172.325 83.8983 -172.344 83.9082L-172.367 83.9196L-172.373 83.9227C-172.375 83.9236 -172.376 83.9241 -172.146 84.3684ZM-174.164 91.8551C-174.165 91.8554 -174.165 91.8555 -174.394 91.4112C-174.623 90.9669 -174.622 90.9664 -174.621 90.9655L-174.615 90.9624L-174.592 90.951C-174.573 90.9411 -174.544 90.9266 -174.506 90.9078C-174.43 90.8701 -174.317 90.8149 -174.167 90.7436C-173.867 90.601 -173.419 90.3941 -172.821 90.1342C-171.626 89.6143 -169.832 88.8827 -167.431 88.0303C-162.629 86.3254 -155.395 84.1378 -145.649 82.1962C-126.157 78.313 -96.6206 75.415 -56.3977 79.3302C24.0482 87.1607 147.225 122.242 318.283 231.176C489.242 340.047 612.269 375.059 692.524 382.871C732.651 386.777 762.089 383.883 781.483 380.019C791.18 378.087 798.368 375.913 803.126 374.223C805.505 373.379 807.277 372.656 808.451 372.145C808.757 372.012 809.022 371.894 809.247 371.791C809.454 371.697 809.628 371.616 809.767 371.549C809.912 371.48 810.02 371.428 810.091 371.392C810.126 371.375 810.153 371.361 810.17 371.353L810.189 371.343L810.193 371.341C810.193 371.341 810.193 371.341 810.197 371.347C810.203 371.359 810.223 371.397 810.286 371.519L810.423 371.785L810.539 372.01C810.577 372.084 810.603 372.133 810.619 372.166L810.638 372.204L810.647 372.222C810.651 372.23 810.65 372.23 810.65 372.231L810.644 372.234L810.621 372.245C810.602 372.255 810.573 372.27 810.535 372.288C810.495 372.308 810.446 372.332 810.386 372.361C810.331 372.388 810.268 372.418 810.196 372.453C810.009 372.542 809.764 372.656 809.46 372.792C809.278 372.874 809.075 372.964 808.85 373.062C807.655 373.582 805.862 374.313 803.46 375.166C798.658 376.871 791.424 379.058 781.678 381C762.186 384.883 732.65 387.781 692.427 383.866C611.981 376.035 488.804 340.954 317.746 232.02C146.787 123.149 23.7597 88.1373 -56.4945 80.3255C-96.6217 76.4196 -126.059 79.3133 -145.454 83.177C-155.151 85.1089 -162.339 87.2835 -167.097 88.9726C-169.476 89.8172 -171.248 90.5404 -172.422 91.0512C-173.01 91.3066 -173.448 91.5089 -173.738 91.6468C-173.883 91.7157 -173.991 91.7685 -174.062 91.8038C-174.097 91.8214 -174.124 91.8346 -174.141 91.8433L-174.16 91.8529L-174.164 91.8551ZM-176.642 98.454C-176.413 98.8983 -176.412 98.8982 -176.412 98.8979L-176.407 98.8957L-176.389 98.8861L-176.357 98.87L-176.31 98.8465C-176.238 98.8113 -176.13 98.7585 -175.985 98.6896C-175.695 98.5517 -175.257 98.3494 -174.67 98.094C-173.495 97.5832 -171.724 96.86 -169.344 96.0154C-164.586 94.3263 -157.399 92.1517 -147.701 90.2198C-128.307 86.356 -98.8694 83.4624 -58.7423 87.3683C21.5119 95.1801 144.54 130.192 315.498 239.063C486.557 347.997 609.733 383.078 690.179 390.909C730.402 394.824 759.938 391.926 779.43 388.043C789.176 386.101 796.41 383.914 801.213 382.209C803.614 381.356 805.407 380.625 806.602 380.105C807.032 379.918 807.384 379.759 807.659 379.631C807.767 379.581 807.864 379.536 807.948 379.495C808.016 379.463 808.076 379.434 808.129 379.409L808.216 379.366L808.287 379.331L808.329 379.31L808.374 379.288L808.396 379.276L808.402 379.273C808.403 379.273 808.403 379.273 808.391 379.248C808.372 379.208 808.318 379.104 808.175 378.828L808.038 378.561C807.972 378.433 807.953 378.397 807.948 378.387C807.946 378.384 807.946 378.384 807.945 378.384L807.941 378.386L807.922 378.396L807.875 378.419L807.843 378.435C807.772 378.47 807.664 378.523 807.519 378.592C807.229 378.73 806.791 378.932 806.204 379.188C805.029 379.698 803.257 380.422 800.878 381.266C796.12 382.955 788.933 385.13 779.235 387.062C759.841 390.926 730.403 393.819 690.276 389.913C610.022 382.102 486.994 347.09 316.035 238.219C144.977 129.285 21.8004 94.2035 -58.6454 86.373C-98.8684 82.4578 -128.405 85.3558 -147.897 89.239C-157.643 91.1806 -164.877 93.3682 -169.679 95.073C-172.08 95.9254 -173.873 96.6571 -175.069 97.1769C-175.666 97.4369 -176.115 97.6438 -176.415 97.7864L-176.504 97.8292L-176.566 97.8588L-176.625 97.8873C-176.676 97.912 -176.719 97.9332 -176.754 97.9506C-176.792 97.9694 -176.82 97.9839 -176.84 97.9938L-176.863 98.0052L-176.869 98.0083C-176.87 98.0091 -176.871 98.0097 -176.642 98.454ZM-178.66 105.941C-178.66 105.941 -178.661 105.941 -178.89 105.497C-179.119 105.052 -179.118 105.052 -179.117 105.051L-179.11 105.048L-179.088 105.037L-179.052 105.019L-179.002 104.993C-178.926 104.956 -178.813 104.9 -178.663 104.829C-178.363 104.687 -177.914 104.48 -177.317 104.22C-176.121 103.7 -174.328 102.968 -171.927 102.116C-167.125 100.411 -159.891 98.2234 -150.145 96.2818C-130.653 92.3986 -101.116 89.5006 -60.8934 93.4158C19.5524 101.246 142.729 136.328 313.787 245.262C484.746 354.132 607.774 389.144 688.028 396.956C728.155 400.862 757.593 397.968 776.987 394.105C786.685 392.173 793.872 389.998 798.63 388.309C801.009 387.464 802.781 386.741 803.956 386.23C804.543 385.975 804.981 385.773 805.271 385.635C805.416 385.566 805.524 385.513 805.595 385.478L805.63 385.46L805.674 385.438L805.693 385.429L805.697 385.427C805.698 385.427 805.698 385.426 805.7 385.43L805.709 385.448C805.721 385.47 805.744 385.514 805.79 385.604L805.928 385.87C806.024 386.058 806.08 386.167 806.112 386.229C806.156 386.315 806.155 386.316 806.154 386.316L806.148 386.319L806.126 386.331L806.086 386.351L806.039 386.374C805.963 386.412 805.85 386.467 805.7 386.538C805.4 386.681 804.952 386.888 804.354 387.148C803.159 387.667 801.366 388.399 798.965 389.251C794.162 390.956 786.928 393.144 777.183 395.085C757.69 398.969 728.154 401.867 687.931 397.951C607.485 390.121 484.309 355.039 313.25 246.105C142.292 137.235 19.264 102.223 -60.9903 94.4111C-101.117 90.5052 -130.555 93.3988 -149.949 97.2626C-159.647 99.1945 -166.834 101.369 -171.592 103.058C-173.971 103.903 -175.743 104.626 -176.918 105.137C-177.505 105.392 -177.943 105.595 -178.233 105.732C-178.378 105.801 -178.486 105.854 -178.557 105.889L-178.594 105.908L-178.637 105.929L-178.655 105.938L-178.66 105.941ZM-181.138 112.54L-180.946 112.911C-180.908 112.984 -180.908 112.984 -180.907 112.983L-180.903 112.981L-180.884 112.972C-180.867 112.963 -180.841 112.95 -180.805 112.932C-180.734 112.897 -180.626 112.844 -180.481 112.775C-180.191 112.637 -179.753 112.435 -179.166 112.18C-177.991 111.669 -176.219 110.946 -173.84 110.101C-169.082 108.412 -161.895 106.237 -152.197 104.305C-132.803 100.442 -103.365 97.548 -63.2381 101.454C17.0162 109.266 140.044 144.278 311.003 253.148C482.061 362.082 605.238 397.164 685.683 404.994C725.906 408.909 755.443 406.011 774.935 402.128C784.681 400.187 791.914 397.999 796.717 396.294C799.118 395.442 800.911 394.71 802.107 394.19C802.704 393.93 803.153 393.723 803.453 393.581C803.529 393.545 803.595 393.513 803.652 393.485L803.732 393.446L803.791 393.417L803.836 393.395C803.853 393.386 803.867 393.379 803.878 393.373L803.9 393.362L803.906 393.359C803.908 393.358 803.909 393.358 803.68 392.913L803.542 392.647L803.467 392.501L803.453 392.475C803.45 392.469 803.45 392.469 803.45 392.469L803.445 392.472L803.427 392.481C803.409 392.49 803.383 392.503 803.347 392.521C803.315 392.537 803.274 392.557 803.226 392.58C803.169 392.608 803.102 392.64 803.023 392.678C802.733 392.815 802.295 393.018 801.708 393.273C800.533 393.784 798.761 394.507 796.382 395.352C791.624 397.041 784.437 399.216 774.739 401.147C755.345 405.011 725.907 407.905 685.78 403.999C605.526 396.187 482.498 361.175 311.54 252.305C140.481 143.371 17.3047 108.289 -63.1412 100.459C-103.364 96.5434 -132.9 99.4414 -152.393 103.325C-162.138 105.266 -169.372 107.454 -174.175 109.159C-176.576 110.011 -178.369 110.743 -179.565 111.263C-180.162 111.522 -180.61 111.729 -180.91 111.872C-181.06 111.943 -181.173 111.998 -181.249 112.036C-181.287 112.055 -181.316 112.069 -181.336 112.079L-181.358 112.091L-181.364 112.094C-181.366 112.095 -181.367 112.095 -181.138 112.54ZM-183.155 120.026C-183.156 120.027 -183.156 120.027 -183.385 119.582C-183.615 119.138 -183.614 119.138 -183.612 119.137L-183.606 119.134L-183.584 119.122L-183.535 119.098L-183.497 119.079C-183.421 119.041 -183.308 118.986 -183.158 118.915C-182.858 118.772 -182.41 118.565 -181.812 118.305C-180.617 117.786 -178.824 117.054 -176.423 116.201C-171.62 114.497 -164.386 112.309 -154.64 110.367C-135.148 106.484 -105.612 103.586 -65.389 107.501C15.0569 115.332 138.234 150.413 309.292 259.347C480.251 368.218 603.278 403.23 683.532 411.042C723.66 414.948 753.097 412.054 772.492 408.19C782.189 406.258 789.376 404.084 794.135 402.395C796.514 401.55 798.285 400.827 799.46 400.316C799.813 400.162 800.113 400.028 800.358 399.915C800.464 399.867 800.559 399.822 800.645 399.782L800.713 399.75L800.775 399.721L800.882 399.669C800.927 399.648 800.968 399.628 801.003 399.611C801.041 399.593 801.073 399.577 801.1 399.564L801.161 399.533L801.179 399.524L801.198 399.514L801.202 399.512C801.202 399.512 801.202 399.512 801.204 399.515L801.211 399.529L801.225 399.556L801.294 399.69L801.432 399.956C801.661 400.4 801.66 400.401 801.659 400.402L801.653 400.405L801.63 400.416C801.611 400.426 801.582 400.441 801.544 400.459L801.511 400.476C801.47 400.496 801.421 400.52 801.363 400.548C801.316 400.57 801.263 400.596 801.205 400.624L801.122 400.663L801.057 400.694C800.962 400.738 800.855 400.788 800.737 400.842C800.493 400.953 800.2 401.085 799.859 401.233C798.663 401.753 796.87 402.485 794.469 403.337C789.667 405.042 782.433 407.229 772.687 409.171C753.195 413.054 723.658 415.952 683.436 412.037C602.99 404.207 479.813 369.125 308.755 260.191C137.796 151.32 14.7684 116.308 -65.4858 108.497C-105.613 104.591 -135.051 107.484 -154.445 111.348C-164.142 113.28 -171.33 115.455 -176.088 117.144C-178.467 117.988 -180.239 118.712 -181.414 119.222C-182.001 119.478 -182.439 119.68 -182.729 119.818C-182.874 119.887 -182.982 119.94 -183.053 119.975C-183.089 119.993 -183.115 120.006 -183.132 120.014L-183.151 120.024L-183.155 120.026ZM-185.633 126.625C-185.404 127.069 -185.404 127.069 -185.403 127.069L-185.399 127.067L-185.38 127.057L-185.346 127.04L-185.301 127.018C-185.23 126.982 -185.122 126.929 -184.977 126.861C-184.687 126.723 -184.249 126.52 -183.661 126.265C-182.487 125.754 -180.715 125.031 -178.336 124.186C-173.578 122.497 -166.39 120.323 -156.693 118.391C-137.299 114.527 -107.861 111.633 -67.7338 115.539C12.5205 123.351 135.548 158.363 306.507 267.234C477.565 376.168 600.742 411.249 681.188 419.08C721.411 422.995 750.947 420.097 770.439 416.214C780.185 414.272 787.419 412.084 792.221 410.38C794.622 409.527 796.416 408.796 797.611 408.276C798.209 408.016 798.657 407.809 798.957 407.666C799.107 407.595 799.22 407.54 799.296 407.502C799.334 407.483 799.363 407.469 799.382 407.459L799.405 407.447L799.411 407.444C799.412 407.444 799.413 407.443 799.348 407.318C799.315 407.252 799.263 407.152 799.184 406.999L799.047 406.732C798.976 406.595 798.959 406.564 798.955 406.557C798.954 406.555 798.954 406.555 798.954 406.555L798.95 406.557L798.931 406.567L798.901 406.582L798.852 406.606C798.781 406.641 798.673 406.694 798.528 406.763C798.238 406.901 797.799 407.103 797.212 407.359C796.038 407.869 794.266 408.593 791.887 409.437C787.129 411.126 779.941 413.301 770.244 415.233C750.849 419.097 721.412 421.99 681.285 418.084C601.03 410.273 478.003 375.261 307.044 266.39C135.986 157.456 12.8089 122.374 -67.6369 114.544C-107.86 110.629 -137.396 113.527 -156.888 117.41C-166.634 119.352 -173.868 121.539 -178.67 123.244C-181.072 124.096 -182.865 124.828 -184.06 125.348C-184.658 125.608 -185.106 125.815 -185.406 125.957C-185.556 126.029 -185.669 126.084 -185.745 126.122C-185.783 126.14 -185.812 126.155 -185.831 126.165L-185.854 126.176L-185.86 126.179C-185.862 126.18 -185.863 126.181 -185.633 126.625ZM-187.651 134.112C-187.652 134.112 -187.652 134.112 -187.881 133.668C-188.11 133.223 -188.109 133.223 -188.108 133.222L-188.102 133.219L-188.079 133.208C-188.06 133.198 -188.031 133.183 -187.993 133.164C-187.917 133.127 -187.804 133.071 -187.654 133C-187.354 132.858 -186.906 132.651 -186.308 132.391C-185.113 131.871 -183.319 131.139 -180.918 130.287C-176.116 128.582 -168.882 126.394 -159.136 124.453C-139.644 120.57 -110.108 117.672 -69.8847 121.587C10.5611 129.417 133.738 164.499 304.796 273.433C475.755 382.303 598.782 417.315 679.037 425.127C719.164 429.033 748.602 426.139 767.996 422.276C777.693 420.344 784.881 418.169 789.639 416.48C792.018 415.635 793.79 414.912 794.964 414.401C795.552 414.146 795.99 413.944 796.28 413.806C796.425 413.737 796.533 413.684 796.604 413.649C796.639 413.631 796.666 413.618 796.683 413.609L796.702 413.6L796.706 413.598C796.706 413.597 796.707 413.597 796.726 413.634L796.799 413.775L796.936 414.041C797.166 414.486 797.165 414.486 797.163 414.487L797.157 414.49L797.134 414.502C797.115 414.512 797.086 414.526 797.048 414.545C796.972 414.583 796.859 414.638 796.709 414.709C796.409 414.852 795.961 415.059 795.363 415.319C794.168 415.838 792.375 416.57 789.973 417.422C785.171 419.127 777.937 421.315 768.191 423.256C748.699 427.14 719.163 430.038 678.94 426.122C598.494 418.292 475.317 383.21 304.259 274.276C133.3 165.406 10.2727 130.394 -69.9816 122.582C-110.109 118.676 -139.546 121.57 -158.941 125.434C-168.638 127.365 -175.826 129.54 -180.584 131.229C-182.963 132.074 -184.735 132.797 -185.909 133.308C-186.497 133.563 -186.935 133.766 -187.225 133.903C-187.298 133.938 -187.362 133.969 -187.417 133.996C-187.47 134.021 -187.514 134.043 -187.549 134.06L-187.604 134.088L-187.628 134.1L-187.647 134.109L-187.651 134.112ZM-189.915 141.125L-189.902 141.15C-189.899 141.155 -189.899 141.155 -189.899 141.154L-189.895 141.152L-189.876 141.143C-189.859 141.134 -189.832 141.121 -189.797 141.103C-189.726 141.068 -189.618 141.015 -189.473 140.946C-189.183 140.808 -188.745 140.606 -188.157 140.351C-186.983 139.84 -185.211 139.117 -182.832 138.272C-178.074 136.583 -170.886 134.408 -161.189 132.476C-141.794 128.613 -112.357 125.719 -72.2295 129.625C8.02476 137.437 131.052 172.449 302.011 281.319C473.069 390.253 596.246 425.335 676.692 433.165C716.915 437.08 746.451 434.182 765.943 430.299C775.689 428.358 782.923 426.17 787.725 424.465C790.127 423.613 791.92 422.881 793.115 422.361C793.713 422.101 794.161 421.894 794.461 421.752C794.611 421.681 794.724 421.625 794.8 421.588C794.838 421.569 794.867 421.554 794.886 421.544L794.909 421.533L794.915 421.53C794.917 421.529 794.918 421.529 794.688 421.084L794.551 420.818L794.484 420.688C794.471 420.663 794.464 420.651 794.461 420.645C794.458 420.64 794.458 420.64 794.458 420.64L794.454 420.643L794.435 420.652C794.418 420.661 794.392 420.674 794.356 420.692C794.319 420.71 794.272 420.733 794.214 420.761L794.163 420.786L794.074 420.829L794.032 420.849C793.742 420.987 793.304 421.189 792.716 421.444C791.542 421.955 789.77 422.678 787.391 423.523C782.633 425.212 775.445 427.387 765.748 429.319C746.354 433.182 716.916 436.076 676.789 432.17C596.534 424.358 473.507 389.346 302.548 280.476C131.49 171.542 8.31321 136.46 -72.1326 128.63C-112.356 124.714 -141.892 127.612 -161.384 131.496C-171.13 133.437 -178.364 135.625 -183.166 137.33C-185.567 138.182 -187.361 138.914 -188.556 139.434C-189.154 139.693 -189.602 139.9 -189.902 140.043C-190.052 140.114 -190.165 140.169 -190.241 140.207C-190.279 140.226 -190.308 140.24 -190.327 140.25L-190.35 140.262L-190.356 140.265C-190.357 140.266 -190.358 140.266 -190.129 140.711C-189.993 140.974 -189.938 141.081 -189.915 141.125ZM-192.147 148.197C-192.147 148.198 -192.148 148.198 -192.377 147.753C-192.606 147.309 -192.605 147.309 -192.604 147.308L-192.597 147.305L-192.575 147.293C-192.555 147.283 -192.527 147.269 -192.489 147.25C-192.413 147.212 -192.3 147.157 -192.15 147.086C-191.85 146.943 -191.401 146.736 -190.804 146.476C-189.608 145.957 -187.815 145.225 -185.414 144.372C-180.612 142.668 -173.378 140.48 -163.632 138.538C-144.14 134.655 -114.603 131.757 -74.3804 135.672C6.06543 143.503 129.242 178.584 300.3 287.518C471.259 396.389 594.287 431.401 674.541 439.213C714.668 443.119 744.106 440.225 763.5 436.361C773.198 434.429 780.385 432.255 785.143 430.566C787.522 429.721 789.294 428.998 790.469 428.487C791.056 428.232 791.494 428.029 791.784 427.892C791.845 427.863 791.899 427.837 791.946 427.814C792.013 427.782 792.067 427.755 792.108 427.735C792.144 427.717 792.17 427.704 792.187 427.695L792.206 427.685L792.21 427.683C792.211 427.683 792.211 427.683 792.303 427.861L792.441 428.127C792.67 428.571 792.669 428.572 792.667 428.573L792.661 428.576L792.639 428.587C792.619 428.597 792.59 428.612 792.552 428.63C792.476 428.668 792.363 428.723 792.213 428.795C791.913 428.937 791.465 429.144 790.867 429.404C789.672 429.924 787.879 430.656 785.478 431.508C780.675 433.213 773.441 435.4 763.696 437.342C744.203 441.225 714.667 444.123 674.444 440.208C593.998 432.378 470.822 397.296 299.763 288.362C128.805 179.491 5.77695 144.479 -74.4773 136.668C-114.604 132.762 -144.042 135.655 -163.436 139.519C-173.134 141.451 -180.321 143.626 -185.079 145.315C-187.459 146.159 -189.23 146.883 -190.405 147.393C-190.992 147.649 -191.43 147.851 -191.72 147.989C-191.865 148.058 -191.973 148.111 -192.044 148.146C-192.08 148.164 -192.106 148.177 -192.124 148.185L-192.142 148.195L-192.147 148.197ZM-194.625 154.796C-194.395 155.24 -194.395 155.24 -194.395 155.24L-194.39 155.238L-194.371 155.228C-194.354 155.22 -194.328 155.206 -194.292 155.189C-194.221 155.153 -194.113 155.101 -193.968 155.032C-193.678 154.894 -193.24 154.692 -192.653 154.436C-191.478 153.925 -189.706 153.202 -187.327 152.358C-182.569 150.668 -175.382 148.494 -165.684 146.562C-146.29 142.698 -116.852 139.805 -76.7251 143.71C3.52919 151.522 126.557 186.534 297.515 295.405C468.574 404.339 591.75 439.42 672.196 447.251C712.419 451.166 741.956 448.268 761.448 444.385C771.193 442.443 778.427 440.256 783.23 438.551C785.631 437.698 787.424 436.967 788.62 436.447C788.988 436.287 789.299 436.147 789.554 436.03C789.713 435.957 789.85 435.892 789.966 435.837C790.116 435.766 790.228 435.711 790.304 435.673C790.342 435.654 790.371 435.64 790.391 435.63L790.413 435.619L790.419 435.616C790.421 435.615 790.422 435.614 790.193 435.17L790.055 434.904L789.977 434.753C789.963 434.726 789.963 434.726 789.963 434.726L789.958 434.728L789.94 434.738L789.894 434.761L789.86 434.777C789.789 434.813 789.681 434.865 789.536 434.934C789.246 435.072 788.808 435.274 788.221 435.53C787.046 436.041 785.274 436.764 782.895 437.608C778.137 439.297 770.95 441.472 761.252 443.404C741.858 447.268 712.42 450.161 672.293 446.256C592.039 438.444 469.011 403.432 298.053 294.561C126.994 185.627 3.81762 150.546 -76.6282 142.715C-116.851 138.8 -146.387 141.698 -165.88 145.581C-175.625 147.523 -182.859 149.71 -187.662 151.415C-190.063 152.268 -191.856 152.999 -193.052 153.519C-193.649 153.779 -194.097 153.986 -194.397 154.129C-194.547 154.2 -194.66 154.255 -194.736 154.293C-194.774 154.312 -194.803 154.326 -194.823 154.336L-194.845 154.347L-194.851 154.35C-194.853 154.351 -194.854 154.352 -194.625 154.796ZM-196.642 162.283C-196.643 162.283 -196.643 162.283 -196.873 161.839C-197.102 161.395 -197.101 161.394 -197.099 161.393L-197.093 161.39L-197.071 161.379C-197.051 161.369 -197.022 161.354 -196.984 161.336C-196.908 161.298 -196.795 161.243 -196.645 161.171C-196.345 161.029 -195.897 160.822 -195.3 160.562C-194.104 160.042 -192.311 159.31 -189.91 158.458C-185.107 156.753 -177.873 154.566 -168.128 152.624C-148.635 148.741 -119.099 145.843 -78.8762 149.758C1.56967 157.588 124.746 192.67 295.805 301.604C466.763 410.475 589.791 445.487 670.045 453.298C710.172 457.204 739.61 454.311 759.004 450.447C768.702 448.515 775.889 446.34 780.647 444.651C783.026 443.807 784.798 443.083 785.973 442.573C786.126 442.506 786.269 442.443 786.401 442.384C786.521 442.331 786.632 442.281 786.736 442.234C786.787 442.21 786.837 442.187 786.885 442.165L786.992 442.116C787.104 442.064 787.203 442.018 787.288 441.977C787.433 441.908 787.541 441.855 787.612 441.82C787.648 441.802 787.674 441.789 787.692 441.781L787.71 441.771L787.715 441.769C787.715 441.768 787.715 441.768 787.807 441.946L787.945 442.213C788.174 442.657 788.173 442.657 788.171 442.658L788.165 442.661L788.143 442.673C788.123 442.683 788.095 442.697 788.057 442.716C788.014 442.737 787.959 442.764 787.892 442.797C787.841 442.821 787.783 442.849 787.718 442.88C787.418 443.023 786.969 443.23 786.372 443.49C785.176 444.01 783.383 444.741 780.982 445.594C776.179 447.298 768.946 449.486 759.2 451.428C739.708 455.311 710.171 458.209 669.948 454.294C589.503 446.463 466.326 411.382 295.268 302.448C124.309 193.577 1.28123 158.565 -78.973 150.753C-119.1 146.847 -148.538 149.741 -167.932 153.605C-177.63 155.537 -184.817 157.711 -189.575 159.4C-191.954 160.245 -193.726 160.968 -194.901 161.479C-195.488 161.734 -195.926 161.937 -196.216 162.074L-196.32 162.124L-196.395 162.16C-196.454 162.189 -196.502 162.213 -196.54 162.231L-196.597 162.26L-196.619 162.271L-196.638 162.281L-196.642 162.283ZM-199.12 168.882C-198.891 169.326 -198.891 169.326 -198.89 169.326L-198.886 169.323L-198.867 169.314C-198.85 169.305 -198.824 169.292 -198.788 169.274C-198.717 169.239 -198.609 169.186 -198.464 169.117C-198.174 168.979 -197.736 168.777 -197.149 168.522C-195.974 168.011 -194.202 167.288 -191.823 166.443C-187.065 164.754 -179.877 162.579 -170.18 160.647C-150.786 156.784 -121.348 153.89 -81.2208 157.796C-0.966574 165.608 122.061 200.62 293.02 309.49C464.078 418.424 587.255 453.506 667.701 461.336C707.924 465.252 737.46 462.354 756.952 458.47C766.698 456.529 773.932 454.341 778.734 452.636C781.135 451.784 782.929 451.052 784.124 450.532C784.298 450.457 784.459 450.386 784.608 450.319C784.656 450.298 784.702 450.277 784.748 450.257C784.848 450.211 784.943 450.168 785.03 450.128C785.201 450.05 785.348 449.981 785.47 449.923C785.54 449.89 785.601 449.86 785.655 449.834C785.717 449.804 785.768 449.779 785.809 449.759C785.847 449.74 785.876 449.726 785.895 449.716L785.918 449.704L785.924 449.701C785.925 449.7 785.926 449.7 785.697 449.255L785.56 448.989C785.496 448.867 785.476 448.828 785.47 448.817L785.468 448.812C785.467 448.811 785.467 448.811 785.467 448.812L785.463 448.814L785.444 448.823C785.427 448.832 785.4 448.845 785.365 448.863C785.294 448.898 785.186 448.951 785.041 449.02C784.751 449.158 784.312 449.36 783.725 449.615C782.551 450.126 780.779 450.849 778.4 451.694C773.641 453.383 766.454 455.558 756.757 457.49C737.362 461.353 707.925 464.247 667.798 460.341C587.543 452.529 464.516 417.517 293.557 308.647C122.499 199.713 -0.678082 164.631 -81.1239 156.801C-121.347 152.886 -150.883 155.784 -170.375 159.667C-180.121 161.608 -187.355 163.796 -192.157 165.501C-194.559 166.353 -196.352 167.085 -197.547 167.605C-198.145 167.865 -198.593 168.072 -198.893 168.214C-199.043 168.285 -199.156 168.341 -199.232 168.378C-199.27 168.397 -199.299 168.412 -199.319 168.422L-199.341 168.433L-199.347 168.436C-199.349 168.437 -199.35 168.437 -199.12 168.882ZM-201.138 176.368C-201.139 176.369 -201.139 176.369 -201.368 175.924C-201.597 175.48 -201.596 175.48 -201.595 175.479L-201.589 175.476L-201.566 175.464C-201.547 175.454 -201.518 175.44 -201.48 175.421C-201.404 175.383 -201.291 175.328 -201.141 175.257C-200.841 175.114 -200.393 174.907 -199.795 174.647C-198.6 174.128 -196.806 173.396 -194.405 172.543C-189.603 170.839 -182.369 168.651 -172.623 166.709C-153.131 162.826 -123.595 159.928 -83.3717 163.843C-2.92587 171.674 120.251 206.755 291.309 315.689C462.268 424.56 585.295 459.572 665.55 467.384C705.677 471.29 735.115 468.396 754.509 464.532C764.206 462.6 771.394 460.426 776.152 458.737C778.531 457.892 780.303 457.169 781.477 456.658C782.065 456.403 782.503 456.2 782.793 456.063C782.938 455.994 783.046 455.941 783.117 455.906L783.164 455.882L783.196 455.866L783.215 455.856L783.219 455.854C783.22 455.854 783.22 455.854 783.312 456.032L783.449 456.298C783.679 456.742 783.678 456.743 783.676 456.744L783.67 456.747L783.647 456.758L783.619 456.773L783.561 456.801C783.485 456.839 783.372 456.894 783.222 456.966C782.922 457.108 782.474 457.315 781.876 457.575C780.681 458.095 778.888 458.827 776.486 459.679C771.684 461.384 764.45 463.571 754.704 465.513C735.212 469.396 705.676 472.294 665.453 468.379C585.007 460.549 461.83 425.467 290.772 316.533C119.813 207.662 -3.21433 172.65 -83.4686 164.839C-123.596 160.933 -153.033 163.826 -172.428 167.69C-182.125 169.622 -189.313 171.797 -194.071 173.486C-196.45 174.33 -198.222 175.054 -199.396 175.564C-199.984 175.82 -200.422 176.022 -200.712 176.16C-200.765 176.185 -200.813 176.208 -200.857 176.229L-200.907 176.254L-200.959 176.279L-201.036 176.317L-201.082 176.34L-201.115 176.356L-201.134 176.366L-201.138 176.368ZM-203.616 182.967C-203.387 183.411 -203.387 183.411 -203.386 183.411L-203.382 183.409L-203.363 183.399C-203.346 183.391 -203.319 183.377 -203.284 183.36C-203.213 183.324 -203.105 183.272 -202.96 183.203C-202.67 183.065 -202.232 182.863 -201.644 182.607C-200.47 182.096 -198.698 181.373 -196.319 180.529C-191.561 178.839 -184.373 176.665 -174.676 174.733C-155.281 170.869 -125.844 167.976 -85.7165 171.881C-5.46228 179.693 117.565 214.705 288.524 323.576C459.582 432.51 582.759 467.591 663.205 475.422C703.428 479.337 732.964 476.439 752.456 472.556C762.202 470.614 769.436 468.427 774.238 466.722C776.64 465.869 778.433 465.138 779.628 464.618C780.226 464.358 780.674 464.151 780.974 464.008C781.124 463.937 781.237 463.882 781.313 463.844C781.351 463.825 781.38 463.811 781.399 463.801L781.422 463.79L781.428 463.787C781.428 463.786 781.428 463.786 781.428 463.786C781.428 463.784 781.427 463.781 781.422 463.773C781.408 463.743 781.359 463.647 781.201 463.341L781.064 463.075C780.972 462.897 780.972 462.897 780.971 462.897L780.967 462.899L780.948 462.909L780.92 462.923L780.869 462.948C780.839 462.963 780.803 462.981 780.76 463.002C780.7 463.031 780.629 463.065 780.545 463.105C780.255 463.243 779.817 463.445 779.229 463.701C778.055 464.212 776.283 464.935 773.904 465.779C769.146 467.468 761.958 469.643 752.261 471.575C732.867 475.439 703.429 478.332 663.302 474.427C583.047 466.615 460.02 431.603 289.061 322.732C118.003 213.798 -5.17382 178.717 -85.6197 170.886C-125.843 166.971 -155.379 169.869 -174.871 173.752C-184.617 175.694 -191.851 177.881 -196.653 179.586C-199.054 180.439 -200.848 181.17 -202.043 181.69C-202.641 181.95 -203.089 182.157 -203.389 182.3C-203.539 182.371 -203.652 182.426 -203.728 182.464C-203.766 182.483 -203.795 182.497 -203.814 182.507L-203.837 182.518L-203.843 182.521C-203.844 182.522 -203.845 182.523 -203.616 182.967ZM-205.634 190.454C-205.634 190.454 -205.635 190.454 -205.864 190.01C-206.093 189.566 -206.092 189.565 -206.091 189.564L-206.084 189.561L-206.062 189.55C-206.042 189.54 -206.014 189.525 -205.976 189.507C-205.9 189.469 -205.787 189.414 -205.637 189.342C-205.337 189.2 -204.888 188.993 -204.291 188.733C-203.095 188.213 -201.302 187.481 -198.901 186.629C-194.099 184.924 -186.865 182.737 -177.119 180.795C-157.627 176.912 -128.09 174.014 -87.8674 177.929C-7.4216 185.759 115.755 220.841 286.813 329.775C457.772 438.646 580.8 473.658 661.054 481.469C701.181 485.375 730.619 482.482 750.013 478.618C759.711 476.686 766.898 474.511 771.656 472.822C774.035 471.978 775.807 471.254 776.982 470.744C777.24 470.631 777.469 470.529 777.67 470.438L777.808 470.375C778.002 470.287 778.165 470.211 778.297 470.148C778.442 470.079 778.55 470.026 778.621 469.991C778.657 469.973 778.683 469.96 778.7 469.951L778.719 469.942L778.723 469.94C778.724 469.939 778.724 469.939 778.816 470.117L778.953 470.384C779.053 470.576 779.109 470.685 779.14 470.747C779.182 470.828 779.181 470.829 779.18 470.829L779.174 470.832L779.152 470.844C779.132 470.854 779.103 470.868 779.065 470.887C778.989 470.925 778.876 470.98 778.726 471.051C778.558 471.131 778.344 471.231 778.084 471.349C777.878 471.442 777.644 471.546 777.38 471.661C776.185 472.18 774.392 472.912 771.991 473.765C767.188 475.469 759.954 477.657 750.208 479.599C730.716 483.482 701.18 486.38 660.957 482.465C580.511 474.634 457.335 439.553 286.276 330.619C115.318 221.748 -7.71006 186.736 -87.9643 178.924C-128.091 175.018 -157.529 177.912 -176.923 181.776C-186.621 183.708 -193.808 185.882 -198.566 187.571C-200.946 188.416 -202.717 189.139 -203.892 189.65C-204.479 189.905 -204.917 190.108 -205.207 190.245C-205.352 190.314 -205.46 190.367 -205.532 190.402L-205.574 190.424L-205.611 190.442L-205.629 190.452L-205.634 190.454ZM-208.112 197.053C-207.883 197.497 -207.882 197.497 -207.882 197.497L-207.877 197.494L-207.859 197.485C-207.841 197.476 -207.815 197.463 -207.779 197.445C-207.708 197.41 -207.6 197.357 -207.455 197.288C-207.165 197.15 -206.727 196.948 -206.14 196.693C-204.965 196.182 -203.193 195.459 -200.814 194.614C-196.056 192.925 -188.869 190.75 -179.171 188.818C-159.777 184.955 -130.339 182.061 -90.2123 185.967C-9.95799 193.779 113.07 228.791 284.028 337.661C455.087 446.595 578.263 481.677 658.709 489.507C698.932 493.423 728.468 490.525 747.961 486.641C757.706 484.7 764.94 482.512 769.743 480.807C772.144 479.955 773.937 479.223 775.132 478.703C775.73 478.444 776.178 478.237 776.478 478.094C776.628 478.023 776.741 477.968 776.817 477.93C776.855 477.911 776.884 477.897 776.904 477.887L776.926 477.875L776.932 477.872C776.934 477.871 776.935 477.871 776.706 477.426L776.568 477.16C776.476 476.982 776.476 476.982 776.475 476.983L776.471 476.985L776.452 476.994L776.425 477.008L776.373 477.034C776.334 477.053 776.284 477.078 776.223 477.107C776.193 477.122 776.16 477.138 776.124 477.155L776.049 477.191C775.759 477.329 775.321 477.531 774.734 477.786C773.559 478.297 771.787 479.02 769.408 479.865C764.65 481.554 757.463 483.729 747.765 485.661C728.371 489.524 698.933 492.418 658.806 488.512C578.552 480.7 455.524 445.688 284.565 336.818C113.507 227.884 -9.66956 192.802 -90.1154 184.972C-130.338 181.057 -159.875 183.955 -179.367 187.838C-189.113 189.779 -196.346 191.967 -201.149 193.672C-203.55 194.524 -205.343 195.256 -206.539 195.776C-207.136 196.036 -207.585 196.243 -207.885 196.385C-208.035 196.456 -208.148 196.512 -208.224 196.549L-208.284 196.58L-208.31 196.593L-208.332 196.604L-208.339 196.607C-208.34 196.608 -208.341 196.608 -208.112 197.053ZM-210.129 204.539C-210.13 204.54 -210.13 204.54 -210.36 204.096C-210.589 203.651 -210.588 203.651 -210.586 203.65L-210.58 203.647L-210.558 203.635C-210.538 203.625 -210.509 203.611 -210.471 203.592C-210.395 203.554 -210.282 203.499 -210.132 203.428C-209.832 203.285 -209.384 203.078 -208.787 202.818C-207.591 202.299 -205.798 201.567 -203.397 200.715C-198.594 199.01 -191.36 196.822 -181.615 194.881C-162.122 190.997 -132.586 188.099 -92.3632 192.015C-11.9173 199.845 111.259 234.927 282.318 343.861C453.276 452.731 576.304 487.743 656.558 495.555C696.685 499.461 726.123 496.567 745.517 492.703C755.215 490.772 762.402 488.597 767.16 486.908C769.539 486.063 771.311 485.34 772.486 484.829C773.073 484.574 773.511 484.371 773.801 484.234C773.946 484.165 774.054 484.112 774.125 484.077C774.161 484.059 774.187 484.046 774.205 484.037L774.223 484.027L774.228 484.025C774.228 484.025 774.228 484.025 774.32 484.203L774.458 484.469C774.532 484.613 774.582 484.71 774.616 484.775C774.642 484.827 774.658 484.859 774.668 484.879C774.686 484.914 774.685 484.914 774.684 484.915L774.678 484.918L774.656 484.929L774.629 484.943L774.57 484.973C774.494 485.01 774.381 485.066 774.231 485.137C773.931 485.279 773.482 485.486 772.885 485.746C771.689 486.266 769.896 486.998 767.495 487.85C762.693 489.555 755.459 491.743 745.713 493.684C726.221 497.567 696.684 500.465 656.461 496.55C576.016 488.72 452.839 453.638 281.781 344.704C110.822 235.833 -12.2058 200.822 -92.46 193.01C-132.587 189.104 -162.025 191.998 -181.419 195.861C-191.117 197.793 -198.304 199.968 -203.062 201.657C-205.441 202.502 -207.213 203.225 -208.388 203.736C-208.975 203.991 -209.413 204.193 -209.703 204.331C-209.774 204.365 -209.837 204.395 -209.89 204.421C-209.945 204.448 -209.991 204.47 -210.027 204.488C-210.063 204.506 -210.089 204.519 -210.106 204.528L-210.125 204.537L-210.129 204.539ZM-212.397 211.545C-212.378 211.582 -212.378 211.582 -212.377 211.582L-212.373 211.58L-212.354 211.57L-212.309 211.548L-212.275 211.531C-212.204 211.496 -212.096 211.443 -211.951 211.374C-211.661 211.236 -211.223 211.034 -210.636 210.778C-209.461 210.268 -207.689 209.544 -205.31 208.7C-200.552 207.011 -193.364 204.836 -183.667 202.904C-164.273 199.04 -134.835 196.147 -94.7078 200.053C-14.4536 207.864 108.574 242.876 279.533 351.747C450.591 460.681 573.768 495.763 654.214 503.593C694.436 507.508 723.973 504.61 743.465 500.727C753.211 498.785 760.445 496.598 765.247 494.893C767.648 494.041 769.442 493.309 770.637 492.789C771.235 492.529 771.683 492.322 771.983 492.18C772.133 492.108 772.246 492.053 772.322 492.015C772.36 491.997 772.389 491.982 772.408 491.972L772.431 491.961L772.437 491.958C772.438 491.957 772.439 491.956 772.21 491.512L772.073 491.246C771.981 491.068 771.98 491.068 771.98 491.068L771.976 491.07L771.957 491.08L771.919 491.099L771.878 491.119C771.806 491.155 771.699 491.208 771.554 491.276C771.263 491.414 770.825 491.617 770.238 491.872C769.063 492.383 767.292 493.106 764.913 493.951C760.154 495.64 752.967 497.814 743.27 499.746C723.875 503.61 694.438 506.504 654.31 502.598C574.056 494.786 451.029 459.774 280.07 350.903C109.012 241.969 -14.1651 206.888 -94.6109 199.057C-134.834 195.142 -164.37 198.04 -183.862 201.923C-193.608 203.865 -200.842 206.053 -205.644 207.757C-208.046 208.61 -209.839 209.341 -211.034 209.861C-211.632 210.121 -212.08 210.328 -212.38 210.471L-212.468 210.513L-212.567 210.56C-212.611 210.582 -212.649 210.6 -212.682 210.617L-212.719 210.635C-212.757 210.654 -212.786 210.668 -212.806 210.678L-212.828 210.69L-212.834 210.693C-212.836 210.693 -212.837 210.694 -212.607 211.138L-212.486 211.374L-212.397 211.545ZM-214.625 218.625C-214.626 218.625 -214.626 218.625 -214.855 218.181C-215.085 217.737 -215.084 217.736 -215.082 217.735L-215.076 217.732L-215.053 217.721L-215.035 217.711L-214.967 217.678C-214.891 217.64 -214.778 217.585 -214.628 217.513C-214.328 217.371 -213.88 217.164 -213.282 216.904C-212.087 216.384 -210.294 215.653 -207.892 214.8C-203.09 213.095 -195.856 210.908 -186.11 208.966C-166.618 205.083 -137.082 202.185 -96.8589 206.1C-16.4131 213.931 106.764 249.012 277.822 357.946C448.781 466.817 571.808 501.829 652.063 509.641C692.19 513.546 721.627 510.653 741.022 506.789C750.719 504.857 757.907 502.682 762.665 500.993C765.044 500.149 766.816 499.426 767.99 498.915C768.577 498.659 769.016 498.457 769.306 498.319C769.451 498.25 769.559 498.197 769.63 498.162L769.676 498.139L769.709 498.123L769.728 498.113L769.732 498.111C769.732 498.111 769.733 498.111 769.825 498.289L769.962 498.555C770.191 498.999 770.19 499 770.189 499L770.183 499.004L770.16 499.015L770.128 499.031L770.074 499.058C769.998 499.096 769.885 499.151 769.735 499.222C769.435 499.365 768.987 499.572 768.389 499.832C767.194 500.352 765.4 501.083 762.999 501.936C758.197 503.641 750.963 505.828 741.217 507.77C721.725 511.653 692.189 514.551 651.966 510.636C571.52 502.805 448.343 467.724 277.285 358.79C106.326 249.919 -16.7015 214.907 -96.9558 207.095C-137.083 203.19 -166.521 206.083 -185.915 209.947C-195.612 211.879 -202.8 214.053 -207.558 215.743C-209.937 216.587 -211.709 217.31 -212.883 217.821C-213.471 218.077 -213.909 218.279 -214.199 218.417C-214.344 218.486 -214.452 218.538 -214.523 218.574C-214.559 218.591 -214.585 218.605 -214.602 218.613L-214.621 218.623L-214.625 218.625ZM-217.103 225.224C-216.874 225.668 -216.874 225.668 -216.873 225.668L-216.869 225.665L-216.85 225.656C-216.833 225.647 -216.806 225.634 -216.771 225.616C-216.7 225.581 -216.592 225.528 -216.447 225.459C-216.157 225.321 -215.719 225.119 -215.131 224.864C-213.957 224.353 -212.185 223.63 -209.806 222.785C-205.048 221.096 -197.86 218.921 -188.163 216.99C-168.768 213.126 -139.331 210.232 -99.2035 214.138C-18.9493 221.95 104.078 256.962 275.037 365.832C446.095 474.766 569.272 509.848 649.718 517.678C689.941 521.594 719.477 518.696 738.969 514.812C748.715 512.871 755.949 510.683 760.751 508.978C763.153 508.126 764.946 507.394 766.141 506.874C766.739 506.615 767.187 506.408 767.487 506.265C767.599 506.212 767.691 506.167 767.762 506.133L767.826 506.101C767.864 506.082 767.893 506.068 767.912 506.058L767.935 506.046L767.941 506.043C767.941 506.043 767.941 506.043 767.941 506.042L767.94 506.04L767.939 506.038C767.935 506.028 767.921 506 767.879 505.917C767.845 505.851 767.793 505.751 767.714 505.597L767.577 505.331L767.517 505.216L767.494 505.171L767.486 505.156C767.484 505.153 767.484 505.153 767.484 505.154L767.48 505.156L767.461 505.165C767.444 505.174 767.417 505.187 767.382 505.205C767.311 505.24 767.203 505.293 767.058 505.362C766.768 505.5 766.33 505.702 765.742 505.957C764.568 506.468 762.796 507.191 760.417 508.036C755.659 509.725 748.471 511.9 738.774 513.832C719.38 517.695 689.942 520.589 649.815 516.683C569.56 508.871 446.533 473.859 275.574 364.989C104.516 256.055 -18.6608 220.973 -99.1067 213.143C-139.33 209.228 -168.866 212.126 -188.358 216.009C-198.104 217.95 -205.338 220.138 -210.14 221.843C-212.541 222.695 -214.335 223.427 -215.53 223.947C-216.128 224.207 -216.576 224.414 -216.876 224.556C-217.026 224.627 -217.139 224.683 -217.215 224.72C-217.253 224.739 -217.282 224.754 -217.301 224.764L-217.324 224.775L-217.33 224.778C-217.331 224.779 -217.332 224.779 -217.103 225.224ZM-219.121 232.71C-219.121 232.711 -219.122 232.711 -219.351 232.266C-219.463 232.049 -219.52 231.938 -219.549 231.881C-219.567 231.845 -219.574 231.831 -219.577 231.825C-219.578 231.821 -219.578 231.821 -219.578 231.821L-219.572 231.818L-219.549 231.806C-219.529 231.796 -219.501 231.782 -219.463 231.763C-219.387 231.725 -219.274 231.67 -219.124 231.599C-218.824 231.456 -218.375 231.249 -217.778 230.989C-216.582 230.47 -214.789 229.738 -212.388 228.886C-207.586 227.181 -200.352 224.993 -190.606 223.052C-171.114 219.168 -141.577 216.27 -101.354 220.186C-20.9086 228.016 102.268 263.098 273.326 372.032C444.285 480.902 567.313 515.914 647.567 523.726C687.694 527.632 717.132 524.738 736.526 520.874C746.224 518.943 753.411 516.768 758.169 515.079C760.548 514.234 762.32 513.511 763.495 513C763.676 512.921 763.843 512.848 763.995 512.779C764.338 512.626 764.609 512.5 764.81 512.405C764.955 512.336 765.063 512.283 765.134 512.248C765.17 512.23 765.196 512.217 765.213 512.208L765.232 512.199L765.236 512.196C765.237 512.196 765.237 512.196 765.329 512.374L765.466 512.64C765.696 513.085 765.695 513.085 765.693 513.086L765.687 513.089L765.665 513.1C765.645 513.11 765.616 513.125 765.578 513.144C765.502 513.181 765.389 513.237 765.239 513.308C765.127 513.361 764.994 513.423 764.841 513.494C764.583 513.612 764.268 513.754 763.893 513.917C762.698 514.437 760.905 515.169 758.504 516.021C753.701 517.726 746.467 519.914 736.721 521.855C717.229 525.738 687.693 528.636 647.47 524.721C567.024 516.891 443.848 481.809 272.789 372.875C101.831 264.004 -21.1971 228.993 -101.451 221.181C-141.578 217.275 -171.016 220.169 -190.41 224.032C-200.108 225.964 -207.295 228.139 -212.053 229.828C-214.433 230.673 -216.204 231.396 -217.379 231.907C-217.966 232.162 -218.404 232.364 -218.694 232.502C-218.839 232.571 -218.947 232.624 -219.019 232.659C-219.054 232.677 -219.08 232.69 -219.098 232.699L-219.116 232.708L-219.121 232.71ZM-221.599 239.309C-221.37 239.754 -221.369 239.754 -221.369 239.753L-221.364 239.751L-221.346 239.741C-221.328 239.733 -221.302 239.719 -221.266 239.702C-221.195 239.667 -221.087 239.614 -220.942 239.545C-220.652 239.407 -220.214 239.205 -219.627 238.949C-218.452 238.438 -216.681 237.715 -214.301 236.871C-209.543 235.182 -202.356 233.007 -192.658 231.075C-173.264 227.211 -143.826 224.318 -103.699 228.224C-23.445 236.035 99.5826 271.047 270.541 379.918C441.6 488.852 564.776 523.933 645.222 531.764C685.445 535.679 714.981 532.781 734.474 528.898C744.219 526.956 751.453 524.769 756.256 523.064C758.657 522.212 760.45 521.48 761.645 520.96C762.243 520.7 762.691 520.493 762.991 520.351C763.141 520.279 763.254 520.224 763.33 520.186C763.368 520.168 763.397 520.153 763.417 520.143L763.439 520.132L763.445 520.129C763.447 520.128 763.448 520.127 763.219 519.683L763.081 519.417C762.989 519.239 762.989 519.239 762.988 519.239L762.984 519.241L762.965 519.251C762.948 519.26 762.922 519.273 762.886 519.29C762.815 519.326 762.707 519.378 762.562 519.447C762.272 519.585 761.834 519.788 761.247 520.043C760.072 520.554 758.3 521.277 755.921 522.121C751.163 523.811 743.976 525.985 734.278 527.917C714.884 531.781 685.446 534.675 645.319 530.769C565.065 522.957 442.037 487.945 271.078 379.074C100.02 270.14 -23.1566 235.059 -103.602 227.228C-143.825 223.313 -173.362 226.211 -192.854 230.094C-202.6 232.036 -209.834 234.224 -214.636 235.928C-217.037 236.781 -218.83 237.512 -220.026 238.032C-220.623 238.292 -221.072 238.499 -221.372 238.642C-221.522 238.713 -221.635 238.768 -221.711 238.806C-221.749 238.825 -221.777 238.839 -221.797 238.849L-221.819 238.861L-221.826 238.864C-221.827 238.864 -221.828 238.865 -221.599 239.309ZM-223.616 246.796C-223.617 246.796 -223.617 246.796 -223.847 246.352C-224.076 245.908 -224.075 245.907 -224.073 245.906L-224.067 245.903L-224.045 245.892C-224.025 245.882 -223.996 245.868 -223.958 245.849C-223.882 245.811 -223.769 245.756 -223.619 245.684C-223.319 245.542 -222.871 245.335 -222.274 245.075C-221.078 244.555 -219.285 243.824 -216.884 242.971C-212.081 241.266 -204.847 239.079 -195.102 237.137C-175.609 233.254 -146.073 230.356 -105.85 234.271C-25.4043 242.102 97.7724 277.183 268.831 386.117C439.789 494.988 562.817 530 643.071 537.811C683.198 541.717 712.636 538.824 732.03 534.96C741.728 533.028 748.915 530.853 753.673 529.164C756.052 528.32 757.824 527.597 758.999 527.086C759.1 527.042 759.197 526.999 759.29 526.958C759.463 526.882 759.621 526.811 759.763 526.746C759.985 526.645 760.168 526.56 760.314 526.49C760.459 526.421 760.567 526.368 760.638 526.333L760.685 526.31L760.718 526.294L760.736 526.284L760.741 526.282C760.741 526.282 760.741 526.281 760.833 526.46L760.971 526.726C761.2 527.17 761.199 527.171 761.197 527.171L761.191 527.175L761.169 527.186C761.149 527.196 761.121 527.21 761.082 527.229C761.042 527.249 760.99 527.275 760.928 527.305C760.874 527.331 760.813 527.36 760.744 527.393C760.444 527.536 759.995 527.743 759.398 528.003C758.202 528.523 756.409 529.254 754.008 530.107C749.205 531.812 741.972 533.999 732.226 535.941C712.734 539.824 683.197 542.722 642.974 538.807C562.528 530.976 439.352 495.895 268.293 386.961C97.3348 278.09 -25.6928 243.078 -105.947 235.266C-146.074 231.36 -175.512 234.254 -194.906 238.118C-204.604 240.05 -211.791 242.224 -216.549 243.914C-218.928 244.758 -220.7 245.481 -221.875 245.992C-222.462 246.247 -222.9 246.45 -223.19 246.588C-223.335 246.657 -223.443 246.709 -223.514 246.745C-223.55 246.762 -223.576 246.776 -223.593 246.784L-223.612 246.794L-223.616 246.796ZM-226.095 253.395C-225.865 253.839 -225.865 253.839 -225.864 253.839L-225.86 253.837L-225.841 253.827C-225.824 253.818 -225.798 253.805 -225.762 253.787C-225.691 253.752 -225.583 253.699 -225.438 253.63C-225.148 253.493 -224.71 253.29 -224.123 253.035C-222.948 252.524 -221.176 251.801 -218.797 250.956C-214.039 249.267 -206.852 247.093 -197.154 245.161C-177.76 241.297 -148.322 238.403 -108.195 242.309C-27.9408 250.121 95.0869 285.133 266.046 394.003C437.104 502.938 560.281 538.019 640.726 545.85C680.949 549.765 710.486 546.867 729.978 542.984C739.724 541.042 746.958 538.854 751.76 537.15C754.161 536.297 755.954 535.565 757.15 535.046C757.263 534.996 757.371 534.949 757.473 534.904C757.912 534.71 758.252 534.552 758.496 534.436C758.55 534.41 758.6 534.386 758.645 534.365C758.692 534.342 758.733 534.322 758.769 534.304L758.835 534.272C758.873 534.253 758.901 534.239 758.921 534.229L758.943 534.217L758.949 534.214C758.951 534.213 758.952 534.213 758.723 533.769L758.585 533.502L758.509 533.355C758.493 533.324 758.493 533.325 758.493 533.325L758.488 533.327L758.47 533.336C758.452 533.345 758.426 533.358 758.39 533.376C758.319 533.411 758.211 533.464 758.066 533.533C757.776 533.671 757.338 533.873 756.751 534.129C755.576 534.639 753.804 535.363 751.425 536.207C746.667 537.896 739.48 540.071 729.782 542.003C710.388 545.866 680.95 548.76 640.823 544.854C560.569 537.042 437.541 502.031 266.583 393.16C95.5244 284.226 -27.6523 249.144 -108.098 241.314C-148.321 237.399 -177.857 240.297 -197.35 244.18C-207.095 246.121 -214.329 248.309 -219.132 250.014C-221.533 250.866 -223.326 251.598 -224.521 252.118C-225.119 252.378 -225.567 252.585 -225.867 252.727C-226.017 252.799 -226.13 252.854 -226.206 252.891L-226.25 252.913L-226.293 252.935L-226.315 252.946L-226.321 252.949C-226.323 252.95 -226.324 252.951 -226.095 253.395ZM-228.112 260.882C-228.113 260.882 -228.113 260.882 -228.342 260.438C-228.572 259.993 -228.571 259.993 -228.569 259.992L-228.563 259.989L-228.54 259.977L-228.503 259.959L-228.454 259.934C-228.378 259.897 -228.265 259.841 -228.115 259.77C-227.815 259.627 -227.367 259.421 -226.769 259.161C-225.574 258.641 -223.781 257.909 -221.379 257.057C-216.577 255.352 -209.343 253.164 -199.597 251.223C-180.105 247.339 -150.569 244.441 -110.346 248.357C-29.9001 256.187 93.2766 291.269 264.335 400.203C435.294 509.073 558.321 544.085 638.576 551.897C678.703 555.803 708.14 552.909 727.535 549.046C737.232 547.114 744.42 544.939 749.178 543.25C751.557 542.405 753.329 541.682 754.503 541.171C755.091 540.916 755.529 540.714 755.819 540.576C755.869 540.552 755.915 540.53 755.957 540.51C756.034 540.472 756.096 540.442 756.143 540.419L756.172 540.404L756.222 540.379L756.241 540.37L756.245 540.367C756.245 540.367 756.246 540.367 756.338 540.545L756.475 540.811C756.704 541.256 756.703 541.256 756.702 541.257L756.696 541.26L756.673 541.272C756.654 541.281 756.625 541.296 756.587 541.315C756.548 541.334 756.499 541.358 756.44 541.387C756.385 541.413 756.321 541.444 756.248 541.479C755.948 541.622 755.5 541.828 754.902 542.088C753.707 542.608 751.913 543.34 749.512 544.192C744.71 545.897 737.476 548.085 727.73 550.026C708.238 553.909 678.702 556.808 638.479 552.892C558.033 545.062 434.856 509.98 263.798 401.046C92.8391 292.176 -30.1885 257.164 -110.443 249.352C-150.57 245.446 -180.008 248.34 -199.402 252.203C-209.099 254.135 -216.287 256.31 -221.045 257.999C-223.424 258.844 -225.196 259.567 -226.37 260.078C-226.958 260.333 -227.396 260.535 -227.686 260.673C-227.831 260.742 -227.939 260.795 -228.01 260.83C-228.046 260.848 -228.072 260.861 -228.089 260.87L-228.108 260.879L-228.112 260.882ZM-230.59 267.48C-230.361 267.925 -230.361 267.925 -230.36 267.924L-230.356 267.922L-230.337 267.913C-230.32 267.904 -230.293 267.891 -230.258 267.873C-230.187 267.838 -230.079 267.785 -229.934 267.716C-229.644 267.578 -229.206 267.376 -228.618 267.12C-227.444 266.61 -225.672 265.886 -223.293 265.042C-218.535 263.353 -211.347 261.178 -201.65 259.246C-182.255 255.382 -152.818 252.489 -112.691 256.395C-32.4363 264.207 90.5913 299.218 261.55 408.089C432.608 517.023 555.785 552.105 636.231 559.935C676.454 563.85 705.99 560.952 725.482 557.069C735.228 555.128 742.462 552.94 747.264 551.235C749.666 550.383 751.459 549.651 752.654 549.131C753.252 548.871 753.7 548.664 754 548.522C754.15 548.45 754.263 548.395 754.339 548.358C754.377 548.339 754.406 548.324 754.425 548.314L754.448 548.303L754.454 548.3C754.456 548.299 754.457 548.298 754.227 547.854L754.09 547.588C753.998 547.41 753.998 547.41 753.997 547.41L753.993 547.412L753.974 547.422C753.957 547.431 753.93 547.444 753.895 547.462C753.824 547.497 753.716 547.55 753.571 547.619C753.281 547.756 752.843 547.959 752.255 548.214C751.081 548.725 749.309 549.448 746.93 550.293C742.172 551.982 734.984 554.156 725.287 556.088C705.893 559.952 676.455 562.846 636.328 558.94C556.073 551.128 433.046 516.116 262.087 407.246C91.0289 298.311 -32.1479 263.23 -112.594 255.399C-152.817 251.484 -182.353 254.382 -201.845 258.265C-211.591 260.207 -218.825 262.395 -223.627 264.1C-226.028 264.952 -227.822 265.684 -229.017 266.203C-229.615 266.463 -230.063 266.67 -230.363 266.813C-230.513 266.884 -230.626 266.939 -230.702 266.977C-230.74 266.996 -230.769 267.01 -230.788 267.02L-230.811 267.032L-230.817 267.035C-230.818 267.036 -230.819 267.036 -230.59 267.48ZM-232.608 274.967C-232.609 274.967 -232.609 274.967 -232.838 274.523C-233.067 274.079 -233.066 274.078 -233.065 274.077L-233.059 274.074L-233.036 274.063C-233.017 274.053 -232.988 274.039 -232.95 274.02C-232.874 273.982 -232.761 273.927 -232.611 273.855C-232.311 273.713 -231.863 273.506 -231.265 273.246C-230.07 272.726 -228.276 271.995 -225.875 271.142C-221.073 269.437 -213.839 267.25 -204.093 265.308C-184.601 261.425 -155.065 258.527 -114.842 262.442C-34.3958 270.273 88.7809 305.354 259.839 414.288C430.798 523.159 553.825 558.171 634.08 565.983C674.207 569.888 703.645 566.995 723.039 563.131C732.736 561.199 739.924 559.024 744.682 557.335C747.061 556.491 748.833 555.768 750.007 555.257C750.595 555.001 751.033 554.799 751.323 554.661C751.468 554.592 751.576 554.539 751.647 554.504C751.683 554.487 751.709 554.473 751.726 554.465L751.745 554.455L751.749 554.453C751.75 554.453 751.75 554.453 751.842 554.631L751.979 554.897C752.209 555.341 752.208 555.342 752.206 555.342L752.2 555.346L752.177 555.357C752.158 555.367 752.129 555.381 752.091 555.4C752.015 555.438 751.902 555.493 751.752 555.564C751.452 555.707 751.004 555.914 750.406 556.174C749.211 556.694 747.418 557.425 745.016 558.278C740.214 559.983 732.98 562.17 723.234 564.112C703.742 567.995 674.206 570.893 633.983 566.978C553.537 559.147 430.36 524.066 259.302 415.132C88.3434 306.261 -34.6843 271.249 -114.939 263.437C-155.066 259.531 -184.503 262.425 -203.898 266.289C-213.595 268.221 -220.783 270.395 -225.541 272.085C-227.92 272.929 -229.692 273.652 -230.866 274.163C-231.454 274.418 -231.892 274.621 -232.182 274.759C-232.327 274.828 -232.435 274.88 -232.506 274.916C-232.541 274.933 -232.568 274.947 -232.585 274.955L-232.604 274.965L-232.608 274.967ZM-235.086 281.566C-234.857 282.01 -234.856 282.01 -234.856 282.01L-234.851 282.008L-234.833 281.998C-234.815 281.989 -234.789 281.976 -234.753 281.958C-234.682 281.923 -234.574 281.87 -234.429 281.801C-234.139 281.664 -233.701 281.461 -233.114 281.206C-231.939 280.695 -230.168 279.972 -227.788 279.127C-223.03 277.438 -215.843 275.264 -206.145 273.332C-186.751 269.468 -157.313 266.574 -117.186 270.48C-36.932 278.292 86.0956 313.304 257.054 422.174C428.113 531.109 551.289 566.19 631.735 574.021C671.958 577.936 701.494 575.038 720.987 571.155C730.732 569.213 737.966 567.025 742.769 565.321C745.17 564.468 746.963 563.736 748.158 563.217C748.756 562.957 749.204 562.75 749.504 562.607C749.584 562.57 749.653 562.536 749.711 562.508C749.763 562.482 749.807 562.461 749.843 562.443C749.881 562.424 749.91 562.41 749.93 562.4L749.952 562.388L749.958 562.385C749.96 562.384 749.961 562.384 749.732 561.94L749.594 561.673C749.502 561.495 749.502 561.495 749.501 561.496L749.497 561.498L749.478 561.507C749.461 561.516 749.435 561.529 749.399 561.547C749.36 561.566 749.311 561.591 749.25 561.62C749.199 561.645 749.141 561.673 749.075 561.704C748.785 561.842 748.347 562.044 747.76 562.3C746.585 562.81 744.813 563.534 742.434 564.378C737.676 566.067 730.489 568.242 720.791 570.174C701.397 574.038 671.959 576.931 631.832 573.025C551.578 565.213 428.55 530.202 257.591 421.331C86.5332 312.397 -36.6436 277.315 -117.089 269.485C-157.312 265.57 -186.849 268.468 -206.341 272.351C-216.087 274.292 -223.321 276.48 -228.123 278.185C-230.524 279.037 -232.317 279.769 -233.513 280.289C-234.11 280.549 -234.559 280.756 -234.859 280.898C-235.009 280.97 -235.122 281.025 -235.198 281.062C-235.236 281.081 -235.264 281.096 -235.284 281.106L-235.306 281.117L-235.313 281.12C-235.314 281.121 -235.315 281.122 -235.086 281.566ZM-237.104 289.053C-237.104 289.053 -237.104 289.053 -237.334 288.609C-237.563 288.164 -237.562 288.164 -237.56 288.163L-237.554 288.16L-237.532 288.148C-237.512 288.139 -237.483 288.124 -237.445 288.105C-237.369 288.068 -237.256 288.012 -237.106 287.941C-236.806 287.798 -236.358 287.592 -235.761 287.332C-234.565 286.812 -232.772 286.08 -230.371 285.228C-225.568 283.523 -218.334 281.335 -208.589 279.394C-189.096 275.51 -159.56 272.612 -119.337 276.528C-38.8914 284.358 84.2853 319.44 255.344 428.374C426.302 537.244 549.33 572.256 629.584 580.068C669.711 583.974 699.149 581.08 718.543 577.217C728.241 575.285 735.428 573.11 740.186 571.421C742.565 570.576 744.337 569.853 745.512 569.342C746.099 569.087 746.537 568.885 746.827 568.747C746.972 568.678 747.08 568.625 747.151 568.59L747.187 568.572L747.231 568.55L747.249 568.541L747.254 568.538C747.254 568.538 747.254 568.538 747.346 568.716L747.484 568.982C747.601 569.21 747.658 569.321 747.686 569.376C747.712 569.427 747.711 569.428 747.71 569.428L747.704 569.431L747.682 569.443C747.662 569.453 747.633 569.467 747.595 569.486C747.519 569.523 747.407 569.579 747.257 569.65C746.957 569.793 746.508 570 745.911 570.259C744.715 570.779 742.922 571.511 740.521 572.363C735.718 574.068 728.484 576.256 718.739 578.197C699.247 582.081 669.71 584.979 629.487 581.063C549.041 573.233 425.865 538.151 254.806 429.217C83.8478 320.347 -39.1798 285.335 -119.434 277.523C-159.561 273.617 -188.999 276.511 -208.393 280.374C-218.091 282.306 -225.278 284.481 -230.036 286.17C-232.415 287.015 -234.187 287.738 -235.362 288.249C-235.949 288.504 -236.387 288.706 -236.677 288.844C-236.822 288.913 -236.93 288.966 -237.001 289.001C-237.037 289.019 -237.063 289.032 -237.08 289.041L-237.099 289.05L-237.104 289.053ZM-239.582 295.651C-239.352 296.096 -239.352 296.096 -239.351 296.095L-239.347 296.093L-239.328 296.084C-239.311 296.075 -239.285 296.062 -239.249 296.044C-239.178 296.009 -239.07 295.956 -238.925 295.887C-238.635 295.749 -238.197 295.547 -237.61 295.291C-236.435 294.781 -234.663 294.057 -232.284 293.213C-227.526 291.524 -220.339 289.349 -210.641 287.417C-191.247 283.553 -161.809 280.66 -121.682 284.566C-41.4278 292.378 81.5999 327.389 252.559 436.26C423.617 545.194 546.794 580.276 627.239 588.106C667.462 592.021 696.999 589.123 716.491 585.24C726.237 583.299 733.47 581.111 738.273 579.406C740.674 578.554 742.467 577.822 743.663 577.302C744.26 577.042 744.709 576.835 745.009 576.693C745.071 576.663 745.127 576.636 745.177 576.612C745.221 576.591 745.26 576.572 745.294 576.555L745.348 576.529L745.394 576.506L745.434 576.485L745.456 576.474L745.462 576.471C745.463 576.47 745.464 576.47 745.449 576.441C745.428 576.398 745.373 576.291 745.236 576.025L745.098 575.759C745.006 575.581 745.006 575.581 745.006 575.581L745.001 575.583L744.983 575.593C744.965 575.602 744.939 575.615 744.903 575.633C744.832 575.668 744.724 575.721 744.579 575.79C744.289 575.927 743.851 576.13 743.264 576.385C742.089 576.896 740.317 577.619 737.938 578.464C733.18 580.153 725.993 582.327 716.295 584.259C696.901 588.123 667.463 591.017 627.336 587.111C547.082 579.299 424.054 544.287 253.096 435.417C82.0374 326.482 -41.1393 291.401 -121.585 283.57C-161.808 279.655 -191.344 282.553 -210.837 286.436C-220.582 288.378 -227.816 290.566 -232.619 292.271C-235.02 293.123 -236.813 293.855 -238.009 294.374C-238.606 294.634 -239.054 294.841 -239.354 294.984C-239.504 295.055 -239.617 295.11 -239.693 295.148L-239.762 295.182L-239.78 295.191L-239.802 295.203L-239.808 295.206C-239.81 295.207 -239.811 295.207 -239.582 295.651ZM-241.599 303.138C-241.6 303.138 -241.6 303.139 -241.829 302.694C-242.059 302.25 -242.058 302.249 -242.056 302.249L-242.05 302.245L-242.028 302.234C-242.008 302.224 -241.979 302.21 -241.941 302.191C-241.865 302.153 -241.752 302.098 -241.602 302.027C-241.302 301.884 -240.854 301.677 -240.256 301.417C-239.061 300.897 -237.268 300.166 -234.866 299.313C-230.064 297.608 -222.83 295.421 -213.084 293.479C-193.592 289.596 -164.056 286.698 -123.833 290.613C-43.3871 298.444 79.7896 333.525 250.848 442.459C421.807 551.33 544.834 586.342 625.089 594.154C665.216 598.06 694.653 595.166 714.048 591.302C723.745 589.37 730.932 587.196 735.691 585.506C738.07 584.662 739.842 583.939 741.016 583.428C741.357 583.28 741.648 583.149 741.888 583.039C742.062 582.959 742.21 582.89 742.332 582.832L742.436 582.782L742.505 582.749C742.567 582.719 742.617 582.695 742.656 582.675C742.691 582.658 742.718 582.645 742.735 582.636L742.754 582.626L742.758 582.624C742.758 582.624 742.759 582.624 742.851 582.802L742.988 583.068C743.122 583.327 743.177 583.435 743.2 583.48C743.216 583.513 743.215 583.513 743.215 583.514L743.209 583.517L743.186 583.528C743.167 583.538 743.138 583.553 743.1 583.571C743.033 583.605 742.938 583.651 742.814 583.71L742.761 583.736C742.461 583.878 742.013 584.085 741.415 584.345C740.22 584.865 738.426 585.596 736.025 586.449C731.223 588.154 723.989 590.341 714.243 592.283C694.751 596.166 665.215 599.064 624.992 595.149C544.546 587.318 421.369 552.237 250.311 443.303C79.3521 334.432 -43.6755 299.42 -123.93 291.609C-164.057 287.703 -193.495 290.596 -212.889 294.46C-222.586 296.392 -229.774 298.567 -234.532 300.256C-236.911 301.1 -238.683 301.823 -239.857 302.334C-240.445 302.59 -240.883 302.792 -241.173 302.93C-241.318 302.999 -241.426 303.052 -241.497 303.087L-241.53 303.103L-241.576 303.126L-241.595 303.136L-241.599 303.138ZM-243.847 310.181C-243.848 310.181 -243.848 310.181 -244.077 309.737C-244.307 309.293 -244.306 309.292 -244.304 309.291L-244.298 309.288L-244.275 309.277C-244.256 309.267 -244.227 309.252 -244.189 309.234C-244.113 309.196 -244 309.141 -243.85 309.069C-243.55 308.927 -243.102 308.72 -242.504 308.46C-241.309 307.94 -239.516 307.208 -237.114 306.356C-232.312 304.651 -225.078 302.464 -215.332 300.522C-195.84 296.639 -166.304 293.741 -126.081 297.656C-45.635 305.486 77.5417 340.568 248.6 449.502C419.559 558.373 542.586 593.385 622.841 601.196C662.968 605.102 692.405 602.209 711.8 598.345C721.497 596.413 728.685 594.238 733.443 592.549C735.822 591.705 737.594 590.981 738.768 590.471C739.356 590.215 739.794 590.013 740.084 589.875C740.154 589.842 740.216 589.812 740.269 589.786C740.325 589.759 740.371 589.736 740.408 589.718C740.443 589.701 740.47 589.687 740.487 589.679L740.506 589.669L740.51 589.667C740.51 589.667 740.51 589.667 740.532 589.708L740.603 589.844L740.74 590.111C740.83 590.284 740.884 590.39 740.917 590.455C740.969 590.555 740.968 590.556 740.967 590.556L740.961 590.559L740.938 590.571C740.919 590.581 740.89 590.595 740.852 590.614C740.776 590.652 740.663 590.707 740.513 590.778C740.25 590.903 739.873 591.078 739.382 591.294C739.313 591.324 739.241 591.356 739.167 591.388C737.972 591.908 736.178 592.639 733.777 593.492C728.975 595.196 721.741 597.384 711.995 599.326C692.503 603.209 662.967 606.107 622.744 602.192C542.298 594.361 419.121 559.28 248.063 450.346C77.1041 341.475 -45.9235 306.463 -126.178 298.651C-166.305 294.745 -195.743 297.639 -215.137 301.503C-224.834 303.435 -232.022 305.609 -236.78 307.298C-239.159 308.143 -240.931 308.866 -242.105 309.377C-242.693 309.632 -243.131 309.835 -243.421 309.973C-243.566 310.042 -243.674 310.094 -243.745 310.13C-243.781 310.147 -243.807 310.16 -243.824 310.169L-243.843 310.179L-243.847 310.181Z" fill="url(#paint0_radial_236_5995)"/>
<defs>
<radialGradient id="paint0_radial_236_5995" cx="0" cy="0" r="1" gradientTransform="matrix(284.144 341.992 -358.562 298.093 255.474 248.609)" gradientUnits="userSpaceOnUse">
<stop stop-color="#10B981" stop-opacity="0.46"/>
<stop offset="0.406987" stop-color="#D8E3D6" stop-opacity="0.28"/>
<stop offset="1" stop-color="#6C9820" stop-opacity="0.05"/>
</radialGradient>
</defs>
</svg>
