<svg width="274" height="287" viewBox="0 0 274 287" fill="none" xmlns="http://www.w3.org/2000/svg">
<rect x="0.5" y="0.5" width="273" height="286" rx="4.5" stroke="#9747FF" stroke-dasharray="10 5"/>
<path d="M16 24C16 19.5817 19.5817 16 24 16H56C60.4183 16 64 19.5817 64 24V56C64 60.4183 60.4183 64 56 64H24C19.5817 64 16 60.4183 16 56V24Z" fill="#BEF264"/>
<circle cx="32" cy="32" r="4" fill="#022C22"/>
<circle cx="40" cy="48" r="4" fill="#022C22"/>
<circle cx="48" cy="32" r="4" fill="#022C22"/>
<path d="M16 96C16 91.5817 19.5817 88 24 88H56C60.4183 88 64 91.5817 64 96V128C64 132.418 60.4183 136 56 136H24C19.5817 136 16 132.418 16 128V96Z" fill="#BEF264"/>
<path d="M40.0001 98.6667C36.6864 98.6667 34.0001 101.353 34.0001 104.667C34.0001 107.98 36.6864 110.667 40.0001 110.667C43.3138 110.667 46.0001 107.98 46.0001 104.667C46.0001 101.353 43.3138 98.6667 40.0001 98.6667Z" fill="#022C22"/>
<path d="M40.0001 112C33.6564 112 29.2223 116.695 28.6726 122.542C28.6375 122.916 28.7615 123.287 29.0141 123.564C29.2668 123.842 29.6248 124 30.0001 124H50.0001C50.3754 124 50.7334 123.842 50.986 123.564C51.2387 123.287 51.3627 122.916 51.3276 122.542C50.7779 116.695 46.3438 112 40.0001 112Z" fill="#022C22"/>
<path d="M83 96C83 91.5817 86.5817 88 91 88H123C127.418 88 131 91.5817 131 96V128C131 132.418 127.418 136 123 136H91C86.5817 136 83 132.418 83 128V96Z" fill="#BEF264"/>
<path d="M96.3333 100C95.597 100 95 100.597 95 101.333V102.667C95 108.558 99.7756 113.333 105.667 113.333V122.667C105.667 123.403 106.264 124 107 124C107.736 124 108.333 123.403 108.333 122.667V117.333C114.224 117.333 119 112.558 119 106.667V105.333C119 104.597 118.403 104 117.667 104H116.333C112.961 104 109.954 105.565 107.999 108.008C106.818 103.404 102.64 100 97.6667 100H96.3333Z" fill="#022C22"/>
<path d="M148 96C148 91.5817 151.582 88 156 88H188C192.418 88 196 91.5817 196 96V128C196 132.418 192.418 136 188 136H156C151.582 136 148 132.418 148 128V96Z" fill="#BEF264"/>
<path d="M161.676 103.562C159.795 105.86 158.667 108.798 158.667 112C158.667 115.202 159.795 118.14 161.676 120.438L166.92 115.194C166.337 114.269 166 113.174 166 112C166 110.826 166.337 109.731 166.92 108.806L161.676 103.562Z" fill="#022C22"/>
<path d="M163.562 101.676L168.806 106.92C169.731 106.337 170.826 106 172 106C173.174 106 174.269 106.337 175.194 106.92L180.438 101.676C178.14 99.7952 175.202 98.6667 172 98.6667C168.798 98.6667 165.86 99.7952 163.562 101.676Z" fill="#022C22"/>
<path d="M182.324 103.562L177.08 108.806C177.663 109.731 178 110.826 178 112C178 113.174 177.663 114.269 177.08 115.194L182.324 120.438C184.205 118.14 185.333 115.202 185.333 112C185.333 108.798 184.205 105.86 182.324 103.562Z" fill="#022C22"/>
<path d="M180.438 122.324L175.194 117.08C174.269 117.663 173.174 118 172 118C170.826 118 169.731 117.663 168.806 117.08L163.562 122.324C165.86 124.205 168.798 125.333 172 125.333C175.202 125.333 178.14 124.205 180.438 122.324Z" fill="#022C22"/>
<path d="M210 96C210 91.5817 213.582 88 218 88H250C254.418 88 258 91.5817 258 96V128C258 132.418 254.418 136 250 136H218C213.582 136 210 132.418 210 128V96Z" fill="#BEF264"/>
<path d="M230 98.6667C229.495 98.6667 229.033 98.952 228.807 99.4037L222.141 112.737C221.934 113.15 221.956 113.641 222.199 114.034C222.442 114.427 222.871 114.667 223.333 114.667H228.292L226.04 123.677C225.897 124.249 226.147 124.848 226.655 125.148C227.163 125.448 227.808 125.379 228.241 124.977L246.907 107.644C247.309 107.271 247.441 106.69 247.241 106.179C247.041 105.669 246.548 105.333 246 105.333H240.355L243.143 100.686C243.39 100.274 243.397 99.7611 243.16 99.3431C242.924 98.925 242.48 98.6667 242 98.6667H230Z" fill="white"/>
<mask id="mask0_87_1026" style="mask-type:alpha" maskUnits="userSpaceOnUse" x="222" y="98" width="26" height="28">
<path d="M230 98.6667C229.495 98.6667 229.033 98.952 228.807 99.4037L222.141 112.737C221.934 113.15 221.956 113.641 222.199 114.034C222.442 114.427 222.871 114.667 223.333 114.667H228.292L226.04 123.677C225.897 124.249 226.147 124.848 226.655 125.148C227.163 125.448 227.808 125.379 228.241 124.977L246.907 107.644C247.309 107.271 247.441 106.69 247.241 106.179C247.041 105.669 246.548 105.333 246 105.333H240.355L243.143 100.686C243.39 100.274 243.397 99.7611 243.16 99.3431C242.924 98.925 242.48 98.6667 242 98.6667H230Z" fill="#022C22"/>
</mask>
<g mask="url(#mask0_87_1026)">
<rect x="218" y="114.667" width="30.6667" height="13.3333" fill="#022C22"/>
</g>
<path d="M16 168C16 163.582 19.5817 160 24 160H56C60.4183 160 64 163.582 64 168V200C64 204.418 60.4183 208 56 208H24C19.5817 208 16 204.418 16 200V168Z" fill="#BEF264"/>
<path d="M36 170.667C35.495 170.667 35.0333 170.952 34.8074 171.404L28.1408 184.737C27.9341 185.15 27.9562 185.641 28.1991 186.034C28.4421 186.427 28.8712 186.667 29.3333 186.667H34.2923L32.0398 195.677C31.8967 196.249 32.147 196.848 32.655 197.148C33.1631 197.448 33.8081 197.379 34.2406 196.977L52.9073 179.644C53.309 179.271 53.4415 178.69 53.2411 178.179C53.0407 177.669 52.5483 177.333 52 177.333H46.3549L49.1433 172.686C49.3905 172.274 49.3969 171.761 49.1603 171.343C48.9236 170.925 48.4804 170.667 48 170.667H36Z" fill="white"/>
<mask id="mask1_87_1026" style="mask-type:alpha" maskUnits="userSpaceOnUse" x="28" y="170" width="26" height="28">
<path d="M36 170.667C35.495 170.667 35.0333 170.952 34.8074 171.404L28.1408 184.737C27.9341 185.15 27.9562 185.641 28.1991 186.034C28.4421 186.427 28.8712 186.667 29.3333 186.667H34.2923L32.0398 195.677C31.8967 196.249 32.147 196.848 32.655 197.148C33.1631 197.448 33.8081 197.379 34.2406 196.977L52.9073 179.644C53.309 179.271 53.4415 178.69 53.2411 178.179C53.0407 177.669 52.5483 177.333 52 177.333H46.3549L49.1433 172.686C49.3905 172.274 49.3969 171.761 49.1603 171.343C48.9236 170.925 48.4804 170.667 48 170.667H36Z" fill="#022C22"/>
</mask>
<g mask="url(#mask1_87_1026)">
<rect x="24" y="182" width="31" height="18" fill="#022C22"/>
</g>
<path d="M78 168C78 163.582 81.5817 160 86 160H118C122.418 160 126 163.582 126 168V200C126 204.418 122.418 208 118 208H86C81.5817 208 78 204.418 78 200V168Z" fill="#BEF264"/>
<path d="M98 170.667C97.495 170.667 97.0333 170.952 96.8074 171.404L90.1408 184.737C89.9341 185.15 89.9562 185.641 90.1991 186.034C90.4421 186.427 90.8712 186.667 91.3333 186.667H96.2923L94.0398 195.677C93.8967 196.249 94.147 196.848 94.655 197.148C95.1631 197.448 95.8081 197.379 96.2406 196.977L114.907 179.644C115.309 179.271 115.441 178.69 115.241 178.179C115.041 177.669 114.548 177.333 114 177.333H108.355L111.143 172.686C111.39 172.274 111.397 171.761 111.16 171.343C110.924 170.925 110.48 170.667 110 170.667H98Z" fill="#F5FAF9"/>
<mask id="mask2_87_1026" style="mask-type:alpha" maskUnits="userSpaceOnUse" x="90" y="170" width="26" height="28">
<path d="M98 170.667C97.495 170.667 97.0333 170.952 96.8074 171.404L90.1408 184.737C89.9341 185.15 89.9562 185.641 90.1991 186.034C90.4421 186.427 90.8712 186.667 91.3333 186.667H96.2923L94.0398 195.677C93.8967 196.249 94.147 196.848 94.655 197.148C95.1631 197.448 95.8081 197.379 96.2406 196.977L114.907 179.644C115.309 179.271 115.441 178.69 115.241 178.179C115.041 177.669 114.548 177.333 114 177.333H108.355L111.143 172.686C111.39 172.274 111.397 171.761 111.16 171.343C110.924 170.925 110.48 170.667 110 170.667H98Z" fill="#022C22"/>
</mask>
<g mask="url(#mask2_87_1026)">
<rect x="86" y="171" width="31" height="29" fill="#022C22"/>
</g>
<path d="M148 168C148 163.582 151.582 160 156 160H188C192.418 160 196 163.582 196 168V200C196 204.418 192.418 208 188 208H156C151.582 208 148 204.418 148 200V168Z" fill="#BEF264"/>
<path d="M159.539 173.415L172 183.611L184.461 173.415C184.317 173.362 184.162 173.333 184 173.333H160C159.838 173.333 159.683 173.362 159.539 173.415Z" fill="#022C22"/>
<path d="M158.667 176.147V193.333C158.667 194.07 159.264 194.667 160 194.667H184C184.736 194.667 185.333 194.07 185.333 193.333V176.147L172.844 186.365C172.353 186.767 171.647 186.767 171.156 186.365L158.667 176.147Z" fill="#022C22"/>
<path d="M210 168C210 163.582 213.582 160 218 160H250C254.418 160 258 163.582 258 168V200C258 204.418 254.418 208 250 208H218C213.582 208 210 204.418 210 200V168Z" fill="#BEF264"/>
<path d="M223.333 172C222.597 172 222 172.597 222 173.333C222 185.852 232.148 196 244.667 196C245.403 196 246 195.403 246 194.667V188.267C246 187.678 245.614 187.159 245.05 186.99L239.716 185.39C239.247 185.249 238.737 185.377 238.391 185.724L236.829 187.286C234.274 185.847 232.153 183.726 230.714 181.171L232.276 179.609C232.623 179.263 232.751 178.753 232.61 178.284L231.01 172.95C230.841 172.386 230.322 172 229.733 172H223.333Z" fill="#022C22"/>
<path d="M16 232C16 227.582 19.5817 224 24 224H56C60.4183 224 64 227.582 64 232V264C64 268.418 60.4183 272 56 272H24C19.5817 272 16 268.418 16 264V232Z" fill="#BEF264"/>
<path fill-rule="evenodd" clip-rule="evenodd" d="M40.7885 261.075L40.79 261.074L40.7925 261.072L40.7999 261.067L40.8246 261.048C40.8455 261.033 40.8749 261.011 40.9124 260.982C40.9874 260.925 41.0947 260.842 41.2296 260.735C41.4993 260.521 41.8801 260.21 42.3352 259.813C43.2434 259.02 44.4567 257.876 45.6736 256.474C48.0636 253.719 50.6666 249.74 50.6666 245.333C50.6666 239.442 45.891 234.667 39.9999 234.667C34.1089 234.667 29.3333 239.442 29.3333 245.333C29.3333 249.74 31.9363 253.719 34.3262 256.474C35.5432 257.876 36.7564 259.02 37.6647 259.813C38.1197 260.21 38.5006 260.521 38.7702 260.735C38.9051 260.842 39.0124 260.925 39.0874 260.982C39.1249 261.011 39.1544 261.033 39.1752 261.048L39.2 261.067L39.2074 261.072L39.2107 261.075C39.68 261.419 40.3191 261.419 40.7885 261.075ZM39.997 248.667C41.8379 248.667 43.3303 247.174 43.3303 245.333C43.3303 243.492 41.8379 242 39.997 242C38.156 242 36.6637 243.492 36.6637 245.333C36.6637 247.174 38.156 248.667 39.997 248.667Z" fill="#022C22"/>
<path d="M82 24C82 19.5817 85.5817 16 90 16H122C126.418 16 130 19.5817 130 24V56C130 60.4183 126.418 64 122 64H90C85.5817 64 82 60.4183 82 56V24Z" fill="#BEF264"/>
<rect x="105" y="24" width="2" height="12" rx="1" fill="#022C22"/>
<rect x="105" y="44" width="2" height="12" rx="1" fill="#022C22"/>
<rect x="116.607" y="27.9792" width="2" height="12" rx="1" transform="rotate(45 116.607 27.9792)" fill="#022C22"/>
<rect x="102.465" y="42.1213" width="2" height="12" rx="1" transform="rotate(45 102.465 42.1213)" fill="#022C22"/>
<rect x="110" y="41" width="2" height="12" rx="1" transform="rotate(-90 110 41)" fill="#022C22"/>
<rect x="90" y="41" width="2" height="12" rx="1" transform="rotate(-90 90 41)" fill="#022C22"/>
<rect x="108.121" y="43.5355" width="2" height="12" rx="1" transform="rotate(-45 108.121 43.5355)" fill="#022C22"/>
<rect x="93.979" y="29.3934" width="2" height="12" rx="1" transform="rotate(-45 93.979 29.3934)" fill="#022C22"/>
<path d="M148 24C148 19.5817 151.582 16 156 16H188C192.418 16 196 19.5817 196 24V56C196 60.4183 192.418 64 188 64H156C151.582 64 148 60.4183 148 56V24Z" fill="#BEF264"/>
<path d="M173 40C173 40.5523 172.552 41 172 41C171.448 41 171 40.5523 171 40C171 39.4477 171.448 39 172 39C172.552 39 173 39.4477 173 40Z" fill="#022C22"/>
<path fill-rule="evenodd" clip-rule="evenodd" d="M172 41C172.552 41 173 40.5523 173 40C173 39.4477 172.552 39 172 39C171.448 39 171 39.4477 171 40C171 40.5523 171.448 41 172 41Z" fill="#022C22"/>
<path fill-rule="evenodd" clip-rule="evenodd" d="M188 39C188.552 39 189 39.4477 189 40C189 49.3888 181.389 57 172 57C171.448 57 171 56.5523 171 56C171 55.4477 171.448 55 172 55C180.284 55 187 48.2843 187 40C187 39.4477 187.448 39 188 39Z" fill="#022C22"/>
<path fill-rule="evenodd" clip-rule="evenodd" d="M172 25C163.716 25 157 31.7157 157 40C157 40.5523 156.552 41 156 41C155.448 41 155 40.5523 155 40C155 30.6112 162.611 23 172 23C172.552 23 173 23.4477 173 24C173 24.5523 172.552 25 172 25Z" fill="#022C22"/>
<path fill-rule="evenodd" clip-rule="evenodd" d="M184 39C184.552 39 185 39.4477 185 40C185 47.1797 179.18 53 172 53C171.448 53 171 52.5523 171 52C171 51.4477 171.448 51 172 51C178.075 51 183 46.0751 183 40C183 39.4477 183.448 39 184 39Z" fill="#022C22"/>
<path fill-rule="evenodd" clip-rule="evenodd" d="M172 29C165.925 29 161 33.9249 161 40C161 40.5523 160.552 41 160 41C159.448 41 159 40.5523 159 40C159 32.8203 164.82 27 172 27C172.552 27 173 27.4477 173 28C173 28.5523 172.552 29 172 29Z" fill="#022C22"/>
<path fill-rule="evenodd" clip-rule="evenodd" d="M180 39C180.552 39 181 39.4477 181 40C181 44.9706 176.971 49 172 49C171.448 49 171 48.5523 171 48C171 47.4477 171.448 47 172 47C175.866 47 179 43.866 179 40C179 39.4477 179.448 39 180 39Z" fill="#022C22"/>
<path fill-rule="evenodd" clip-rule="evenodd" d="M172 33C168.134 33 165 36.134 165 40C165 40.5523 164.552 41 164 41C163.448 41 163 40.5523 163 40C163 35.0294 167.029 31 172 31C172.552 31 173 31.4477 173 32C173 32.5523 172.552 33 172 33Z" fill="#022C22"/>
<path d="M210 24C210 19.5817 213.582 16 218 16H250C254.418 16 258 19.5817 258 24V56C258 60.4183 254.418 64 250 64H218C213.582 64 210 60.4183 210 56V24Z" fill="#BEF264"/>
<path d="M233.843 28.3779C233.901 28.238 234.099 28.238 234.157 28.3779L240.154 42.7692C241.984 47.1605 238.757 52 234 52Lnan nanL234 52C229.243 52 226.016 47.1605 227.846 42.7692L233.843 28.3779Z" fill="#022C22"/>
</svg>
